<?xml version="1.0" encoding="utf-8"?>
<!-- Generator: Adobe Illustrator 24.0.0, SVG Export Plug-In . SVG Version: 6.00 Build 0)  -->
<svg version="1.1" id="Layer_1" xmlns="http://www.w3.org/2000/svg" xmlns:xlink="http://www.w3.org/1999/xlink" x="0px" y="0px"
	 viewBox="0 0 641 481" style="enable-background:new 0 0 641 481;" xml:space="preserve">
<style type="text/css">
	.st0{fill:none;}
	.st1{fill:none;stroke:#000000;stroke-width:0.5;stroke-miterlimit:10;}
	.st2{fill:none;stroke:#000000;stroke-width:0.5;stroke-miterlimit:9.9999;}
</style>
<title>webdevelopment</title>
<g id="Layer_2_1_">
	<rect x="0.5" y="0.5" class="st0" width="640" height="480"/>
</g>
<g id="Layer_3">
	<polygon class="st1" points="54.4,434.7 50.4,438.7 46.5,434.7 	"/>
	<polygon class="st1" points="587.7,296.1 577.6,306.1 567.6,296.1 	"/>
	<polygon class="st1" points="571.2,339.2 555.2,355.1 539.3,339.2 	"/>
	<polygon class="st1" points="52.9,39.5 46.5,46 40,39.5 	"/>
	<polygon class="st1" points="37.9,118 27.9,128 17.9,118 	"/>
	<polygon class="st1" points="640.5,421.1 632.9,428.8 625.2,421.1 	"/>
	<polygon class="st1" points="598.8,102.1 587.9,113 576.9,102.1 	"/>
	<polygon class="st1" points="298.9,69.4 291.3,77 283.7,69.4 	"/>
	<polygon class="st1" points="577.6,66.1 571.2,72.6 564.7,66.1 	"/>
	<polygon class="st1" points="180.6,22.3 168.7,34.2 156.7,22.3 	"/>
	<polygon class="st1" points="114.5,404.2 97.5,421.1 80.5,404.2 	"/>
	<polygon class="st1" points="246.9,428.7 143.8,428.7 143.8,420.5 	"/>
	<polygon class="st1" points="143.8,420.5 246.9,420.5 246.9,428.7 	"/>
	<polygon class="st1" points="350.7,428.7 246.9,428.7 246.9,420.5 	"/>
	<polygon class="st1" points="246.9,420.5 350.7,420.5 350.7,428.7 	"/>
	<polygon class="st1" points="245.6,213.1 142.3,213.1 142.3,109.9 	"/>
	<polygon class="st1" points="142.4,109.9 245.6,109.9 245.6,213.1 	"/>
	<polygon class="st1" points="349,213.1 245.8,213.1 245.8,109.9 	"/>
	<polygon class="st1" points="245.8,109.9 349,109.9 349,213.1 	"/>
	<polygon class="st1" points="245.7,316.4 142.4,316.4 142.4,213.1 	"/>
	<polygon class="st1" points="142.5,213.1 245.7,213.1 245.7,316.2 	"/>
	<polygon class="st1" points="349.1,316.4 245.8,316.4 245.8,213.1 	"/>
	<polygon class="st1" points="245.9,213.1 349.1,213.1 349.1,316.2 	"/>
	<g>
		<polygon class="st1" points="271.6,197.3 329.7,197.3 329.7,205.1 		"/>
		<polygon class="st1" points="329.7,205.1 271.6,205.1 271.6,197.3 		"/>
		<polygon class="st1" points="159.8,197.3 198.8,197.3 198.8,205.1 		"/>
		<polygon class="st1" points="198.8,205.1 159.8,205.1 159.8,197.3 		"/>
		<polygon class="st1" points="161.8,204.3 161.8,317 159.8,317 		"/>
		<polygon class="st1" points="159.8,316.9 159.8,204.3 161.8,204.3 		"/>
		<polygon class="st1" points="206.2,197.3 261.5,197.3 261.5,205.1 		"/>
		<polygon class="st1" points="261.5,205.1 206.2,205.1 206.2,197.3 		"/>
		<polygon class="st1" points="258.7,223.8 288.7,223.8 288.7,231.4 		"/>
		<polygon class="st1" points="288.7,231.4 258.6,231.4 258.6,223.8 		"/>
		<polygon class="st1" points="297.5,223.8 329.2,223.8 329.2,231.4 		"/>
		<polygon class="st1" points="329,231.4 297.5,231.4 297.5,223.8 		"/>
		<polygon class="st1" points="190.3,255.4 226.9,255.4 226.9,261.6 		"/>
		<polygon class="st1" points="226.8,261.6 190.3,261.6 190.3,255.4 		"/>
		<polygon class="st1" points="234.3,255.4 269.9,255.4 269.9,261.6 		"/>
		<polygon class="st1" points="269.9,261.6 234.3,261.6 234.3,255.4 		"/>
		<polygon class="st1" points="279.4,255.4 329.7,255.4 329.7,261.6 		"/>
		<polygon class="st1" points="329.7,261.6 279.4,261.6 279.4,255.4 		"/>
		<polygon class="st1" points="190.3,291.3 206,291.3 206,297.4 		"/>
		<polygon class="st1" points="206,297.5 190.3,297.5 190.3,291.3 		"/>
		<polygon class="st1" points="161.8,318.8 161.8,326.7 158.7,326.7 		"/>
		<polygon class="st1" points="158.7,326.7 158.7,318.8 161.8,318.8 		"/>
		<polygon class="st1" points="175.1,230.7 175.1,303.8 173.2,303.8 		"/>
		<polygon class="st1" points="173.2,303.7 173.2,230.7 175.1,230.7 		"/>
		<polygon class="st1" points="175.1,305.6 175.1,313.5 172,313.5 		"/>
		<polygon class="st1" points="172,313.5 172,305.6 175.1,305.6 		"/>
		<polygon class="st1" points="213.5,291.3 240.5,291.3 240.5,297.4 		"/>
		<polygon class="st1" points="240.5,297.5 213.5,297.5 213.5,291.3 		"/>
		<polygon class="st1" points="248.7,291.3 329.2,291.3 329.2,297.4 		"/>
		<polygon class="st1" points="329.2,297.5 248.7,297.5 248.7,291.3 		"/>
		<polygon class="st1" points="190.3,273.6 240.3,273.6 240.3,279.7 		"/>
		<polygon class="st1" points="240.3,279.7 190.3,279.7 190.3,273.6 		"/>
		<polygon class="st1" points="248.7,273.6 329.7,273.6 329.7,279.7 		"/>
		<polygon class="st1" points="329.7,279.7 248.7,279.7 248.7,273.6 		"/>
		<polygon class="st1" points="173,223.8 199.5,223.8 199.5,231.4 		"/>
		<polygon class="st1" points="199.5,231.4 173,231.4 173,223.8 		"/>
		<polygon class="st1" points="206.2,223.8 252,223.8 252,231.4 		"/>
		<polygon class="st1" points="252,231.4 206.2,231.4 206.2,223.8 		"/>
		<polygon class="st1" points="280.5,120.7 338.5,120.7 338.5,128.5 		"/>
		<polygon class="st1" points="338.5,128.5 280.5,128.5 280.5,120.7 		"/>
		<polygon class="st1" points="249.9,337.7 329.7,337.7 329.7,348.3 		"/>
		<polygon class="st1" points="329.7,348.3 249.9,348.3 249.9,337.7 		"/>
		<polygon class="st1" points="160,337.7 236,337.7 236,348.3 		"/>
		<polygon class="st1" points="236,348.3 160,348.3 160,337.7 		"/>
		<polygon class="st1" points="249.8,358.2 329.6,358.2 329.6,368.9 		"/>
		<polygon class="st1" points="329.6,368.9 249.8,368.9 249.8,358.2 		"/>
		<polygon class="st1" points="159.9,358.2 235.9,358.2 235.9,368.9 		"/>
		<polygon class="st1" points="235.9,368.9 159.9,368.9 159.9,358.2 		"/>
	</g>
	<polygon class="st1" points="246.7,420.3 143.4,420.3 143.4,317 	"/>
	<polygon class="st1" points="143.5,317 246.7,317 246.7,420.2 	"/>
	<polygon class="st1" points="350.1,420.3 246.8,420.3 246.8,317 	"/>
	<polygon class="st1" points="246.9,317 350.1,317 350.1,420.2 	"/>
	<g>
		
			<rect x="472.9" y="230" transform="matrix(0.7069 -0.7073 0.7073 0.7069 -44.3587 429.4744)" class="st2" width="46.2" height="76.4"/>
		
			<rect x="391.7" y="233.8" transform="matrix(0.7069 -0.7073 0.7073 0.7069 -60.1291 368.6732)" class="st2" width="46.2" height="46.2"/>
		
			<rect x="461.6" y="164.1" transform="matrix(0.7069 -0.7073 0.7073 0.7069 9.6833 397.7181)" class="st2" width="46.2" height="46.2"/>
		<line class="st1" x1="485.4" y1="224.8" x2="523.4" y2="295"/>
		<line class="st1" x1="469" y1="241.3" x2="523.4" y2="295"/>
		<line class="st1" x1="414.8" y1="289.5" x2="414.8" y2="224.1"/>
		<line class="st1" x1="484.7" y1="154.5" x2="484.7" y2="219.9"/>
		<line class="st1" x1="523.4" y1="295" x2="452.8" y2="257.5"/>
	</g>
	<g>
		
			<rect x="167.3" y="131.8" transform="matrix(0.7069 -0.7073 0.7073 0.7069 -48.4065 162.6124)" class="st2" width="9.5" height="15.7"/>
		
			<rect x="150.5" y="132.6" transform="matrix(0.7069 -0.7073 0.7073 0.7069 -51.6539 150.0923)" class="st2" width="9.5" height="9.5"/>
		
			<rect x="164.9" y="118.3" transform="matrix(0.7069 -0.7073 0.7073 0.7069 -37.2782 156.0732)" class="st2" width="9.5" height="9.5"/>
		<line class="st1" x1="169.8" y1="130.8" x2="177.6" y2="145.2"/>
		<line class="st1" x1="166.4" y1="134.2" x2="177.6" y2="145.2"/>
		<line class="st1" x1="155.3" y1="144.1" x2="155.3" y2="130.6"/>
		<line class="st1" x1="169.7" y1="116.3" x2="169.7" y2="129.8"/>
		<line class="st1" x1="177.6" y1="145.2" x2="163.1" y2="137.5"/>
	</g>
</g>
<polygon class="st1" points="143.8,382.9 195.3,382.9 195.3,420.4 "/>
<polygon class="st1" points="195.3,420.4 143.8,420.4 143.8,382.9 "/>
<polygon class="st1" points="194.9,382.8 246.4,382.8 246.4,420.3 "/>
<polygon class="st1" points="246.4,420.3 194.9,420.3 194.9,382.8 "/>
<polygon class="st1" points="246.4,382.9 298.4,382.9 298.4,420.3 "/>
<polygon class="st1" points="298.4,420.3 246.4,420.3 246.4,382.9 "/>
<polygon class="st1" points="298,382.8 350.1,382.8 350.1,420.3 "/>
<polygon class="st1" points="350.1,420.3 298,420.3 298,382.8 "/>
</svg>
