<?xml version="1.0" encoding="utf-8"?>
<!-- Generator: Adobe Illustrator 24.0.0, SVG Export Plug-In . SVG Version: 6.00 Build 0)  -->
<svg version="1.1" id="Layer_1" xmlns="http://www.w3.org/2000/svg" xmlns:xlink="http://www.w3.org/1999/xlink" x="0px" y="0px"
	 viewBox="0 0 641 481" style="enable-background:new 0 0 641 481;" xml:space="preserve">
<style type="text/css">
	.st0{fill:none;}
	.st1{fill:none;stroke:#000000;stroke-width:0.5;stroke-miterlimit:10;}
</style>
<title>webdevelopment</title>
<g id="Layer_2_1_">
	<rect x="0.5" y="0.5" class="st0" width="640" height="480"/>
</g>
<g id="Layer_3">
	<polygon class="st1" points="54.4,434.7 50.4,438.7 46.5,434.7 	"/>
	<polygon class="st1" points="587.7,296.1 577.6,306.1 567.6,296.1 	"/>
	<polygon class="st1" points="571.2,339.2 555.2,355.1 539.3,339.2 	"/>
	<polygon class="st1" points="52.9,39.5 46.5,46 40,39.5 	"/>
	<polygon class="st1" points="37.9,118 27.9,128 17.9,118 	"/>
	<polygon class="st1" points="640.5,421.1 632.9,428.8 625.2,421.1 	"/>
	<polygon class="st1" points="598.8,102.1 587.9,113 576.9,102.1 	"/>
	<polygon class="st1" points="298.9,69.4 291.3,77 283.7,69.4 	"/>
	<polygon class="st1" points="577.6,66.1 571.2,72.6 564.7,66.1 	"/>
	<polygon class="st1" points="180.6,22.3 168.7,34.2 156.7,22.3 	"/>
	<polygon class="st1" points="114.5,404.2 97.5,421.1 80.5,404.2 	"/>
	<polygon class="st1" points="238.8,313.1 137.6,313.1 137.6,303.8 	"/>
	<polygon class="st1" points="137.6,303.8 238.8,303.8 238.8,313.1 	"/>
	<polygon class="st1" points="373,313.1 239,313.1 239,303.8 	"/>
	<polygon class="st1" points="239.1,303.8 373,303.8 373,313.1 	"/>
	<polygon class="st1" points="297.4,316 349.8,316 349.8,344.9 	"/>
	<polygon class="st1" points="349.8,345 297.4,345 297.4,316 	"/>
	<polygon class="st1" points="506.9,313.1 372.9,313.1 372.9,303.8 	"/>
	<polygon class="st1" points="373,303.8 506.9,303.8 506.9,313.1 	"/>
	<polygon class="st1" points="229.7,212.2 137.3,212.2 137.3,119.9 	"/>
	<polygon class="st1" points="137.4,119.9 229.7,119.9 229.7,212.2 	"/>
	<polygon class="st1" points="322.2,212.2 229.9,212.2 229.9,119.9 	"/>
	<polygon class="st1" points="229.9,119.9 322.2,119.9 322.2,212.2 	"/>
	<polygon class="st1" points="414.5,212.2 322.1,212.2 322.1,119.9 	"/>
	<polygon class="st1" points="322.2,119.9 414.5,119.9 414.5,212.2 	"/>
	<polygon class="st1" points="229.8,304.6 137.4,304.6 137.4,212.2 	"/>
	<polygon class="st1" points="137.5,212.2 229.8,212.2 229.8,304.5 	"/>
	<polygon class="st1" points="322.3,304.6 229.9,304.6 229.9,212.2 	"/>
	<polygon class="st1" points="230,212.2 322.3,212.2 322.3,304.5 	"/>
	<polygon class="st1" points="414.6,304.6 322.2,304.6 322.2,212.2 	"/>
	<polygon class="st1" points="322.3,212.2 414.6,212.2 414.6,304.5 	"/>
	<polygon class="st1" points="506.9,212.2 414.6,212.2 414.6,119.9 	"/>
	<polygon class="st1" points="414.6,119.9 506.9,119.9 506.9,212.2 	"/>
	<polygon class="st1" points="507,304.6 414.7,304.6 414.7,212.2 	"/>
	<polygon class="st1" points="414.7,212.2 507,212.2 507,304.5 	"/>
	<polygon class="st1" points="371.9,354.1 371.9,350 367.7,349.9 	"/>
	<polygon class="st1" points="367.7,349.9 367.7,354.1 371.9,354.1 	"/>
	<polygon class="st1" points="367.7,345.7 367.7,349.9 371.9,350 	"/>
	<polygon class="st1" points="367.6,358.3 367.7,354.1 371.9,354.1 	"/>
	<polygon class="st1" points="271.6,354.1 271.6,349.9 275.7,349.9 	"/>
	<polygon class="st1" points="275.7,349.9 275.8,354 271.6,354.1 	"/>
	<polygon class="st1" points="275.6,345.7 275.7,349.9 271.6,349.9 	"/>
	<polygon class="st1" points="275.9,358.2 275.8,354 271.6,354.1 	"/>
	<polygon class="st1" points="367.6,358.1 367.6,351.9 275.9,351.9 	"/>
	<polygon class="st1" points="275.9,351.9 275.9,358.2 367.6,358.1 	"/>
	<polygon class="st1" points="367.6,345.6 367.6,351.9 275.9,351.9 	"/>
	<polygon class="st1" points="275.9,351.9 275.9,345.6 367.6,345.6 	"/>
	<polygon class="st1" points="382,160.7 432.9,160.7 432.9,167.5 	"/>
	<polygon class="st1" points="432.9,167.5 382,167.5 382,160.7 	"/>
	<polygon class="st1" points="285.7,160.7 319.9,160.7 319.9,167.5 	"/>
	<polygon class="st1" points="319.9,167.5 285.7,167.5 285.7,160.7 	"/>
	<polygon class="st1" points="287.4,166.8 287.4,265.7 285.7,265.7 	"/>
	<polygon class="st1" points="285.7,265.6 285.7,166.8 287.4,166.8 	"/>
	<polygon class="st1" points="326.4,160.7 374.9,160.7 374.9,167.5 	"/>
	<polygon class="st1" points="374.9,167.5 326.4,167.5 326.4,160.7 	"/>
	<polygon class="st1" points="440.4,160.7 475.7,160.7 475.7,167.5 	"/>
	<polygon class="st1" points="475.6,167.5 440.4,167.5 440.4,160.7 	"/>
	<polygon class="st1" points="372.4,183.9 398.7,183.9 398.7,190.6 	"/>
	<polygon class="st1" points="398.7,190.6 372.3,190.6 372.3,183.9 	"/>
	<polygon class="st1" points="406.4,183.9 434.2,183.9 434.2,190.6 	"/>
	<polygon class="st1" points="434.1,190.6 406.4,190.6 406.4,183.9 	"/>
	<polygon class="st1" points="440.1,183.9 475.7,183.9 475.7,190.6 	"/>
	<polygon class="st1" points="475.6,190.6 440.1,190.6 440.1,183.9 	"/>
	<polygon class="st1" points="312.4,211.7 344.5,211.7 344.5,217.1 	"/>
	<polygon class="st1" points="344.4,217.1 312.4,217.1 312.4,211.7 	"/>
	<polygon class="st1" points="351,211.7 382.2,211.7 382.2,217.1 	"/>
	<polygon class="st1" points="382.2,217.1 351,217.1 351,211.7 	"/>
	<polygon class="st1" points="390.6,211.7 402.6,211.7 402.6,217.1 	"/>
	<polygon class="st1" points="402.6,217.1 390.6,217.1 390.6,211.7 	"/>
	<polygon class="st1" points="409.6,211.7 451.9,211.7 451.9,217.1 	"/>
	<polygon class="st1" points="451.9,217.1 409.6,217.1 409.6,211.7 	"/>
	<polygon class="st1" points="312.4,243.1 326.2,243.1 326.2,248.5 	"/>
	<polygon class="st1" points="326.2,248.6 312.4,248.6 312.4,243.1 	"/>
	<polygon class="st1" points="287.4,267.3 287.4,274.2 284.7,274.2 	"/>
	<polygon class="st1" points="284.7,274.2 284.7,267.3 287.4,267.3 	"/>
	<polygon class="st1" points="299.1,190 299.1,254.1 297.4,254.1 	"/>
	<polygon class="st1" points="297.4,254 297.4,190 299.1,190 	"/>
	<polygon class="st1" points="299.1,255.7 299.1,262.6 296.4,262.6 	"/>
	<polygon class="st1" points="296.4,262.6 296.4,255.7 299.1,255.7 	"/>
	<polygon class="st1" points="332.8,243.1 356.4,243.1 356.4,248.5 	"/>
	<polygon class="st1" points="356.4,248.6 332.8,248.6 332.8,243.1 	"/>
	<polygon class="st1" points="363.6,243.1 412.4,243.1 412.4,248.5 	"/>
	<polygon class="st1" points="412.4,248.6 363.6,248.6 363.6,243.1 	"/>
	<polygon class="st1" points="420.9,243.4 451.9,243.4 451.9,248.8 	"/>
	<polygon class="st1" points="451.9,248.8 420.9,248.8 420.9,243.4 	"/>
	<polygon class="st1" points="312.4,227.6 356.3,227.6 356.3,233 	"/>
	<polygon class="st1" points="356.3,233 312.4,233 312.4,227.6 	"/>
	<polygon class="st1" points="363.6,227.6 396.8,227.6 396.8,233 	"/>
	<polygon class="st1" points="396.8,233 363.6,233 363.6,227.6 	"/>
	<polygon class="st1" points="405.5,227.6 419.3,227.6 419.3,233 	"/>
	<polygon class="st1" points="419.3,233 405.5,233 405.5,227.6 	"/>
	<polygon class="st1" points="428.1,227.6 451.9,227.6 451.9,233 	"/>
	<polygon class="st1" points="451.9,233 428.1,233 428.1,227.6 	"/>
	<polygon class="st1" points="297.2,183.9 320.5,183.9 320.5,190.6 	"/>
	<polygon class="st1" points="320.5,190.6 297.2,190.6 297.2,183.9 	"/>
	<polygon class="st1" points="326.4,183.9 366.5,183.9 366.5,190.6 	"/>
	<polygon class="st1" points="366.5,190.6 326.4,190.6 326.4,183.9 	"/>
	
		<rect x="213.2" y="209.3" transform="matrix(0.7069 -0.7073 0.7073 0.7069 -100.6224 232.6828)" class="st1" width="34.4" height="56.9"/>
	
		<rect x="152.7" y="212.1" transform="matrix(0.7069 -0.7073 0.7073 0.7069 -112.3659 187.3986)" class="st1" width="34.4" height="34.4"/>
	
		<rect x="204.8" y="160.2" transform="matrix(0.7069 -0.7073 0.7073 0.7069 -60.4091 209.0365)" class="st1" width="34.4" height="34.4"/>
	<line class="st1" x1="222.5" y1="205.4" x2="250.8" y2="257.7"/>
	<line class="st1" x1="210.3" y1="217.7" x2="250.8" y2="257.7"/>
	<line class="st1" x1="169.9" y1="253.6" x2="169.9" y2="204.9"/>
	<line class="st1" x1="222" y1="153.1" x2="222" y2="201.8"/>
	<line class="st1" x1="250.8" y1="257.7" x2="198.2" y2="229.8"/>
</g>
</svg>
