<svg id="Layer_1" enable-background="new 0 0 512 512" height="512" viewBox="0 0 512 512" width="512" xmlns="http://www.w3.org/2000/svg"><g><path d="m456.764 439.836-401.519.012c-11.446 0-20.726-9.278-20.726-20.725l-.008-271.274c0-11.446 9.278-20.726 20.725-20.726l401.519-.012c11.446 0 20.726 9.278 20.726 20.725l.008 271.274c0 11.446-9.279 20.726-20.725 20.726z" fill="#4380a0"/><path d="m477.489 418.989c0 11.509-9.22 20.849-20.604 20.849h-30.905c11.383 0 20.604-9.34 20.604-20.849l-.01-271.028c0-11.498-9.189-20.818-20.552-20.849h30.854c11.383 0 20.604 9.33 20.604 20.849z" fill="#3b7191"/><path d="m446.583 404.516c0 2.236-1.791 4.048-4 4.048h-26.905l-346.251.01c-2.209 0-4-1.812-4-4.047l-.01-242.084c0-2.235 1.791-4.048 4-4.048l346.251-.01h26.906c2.209 0 4 1.812 4 4.048z" fill="#f3f3f3"/><path d="m442.583 408.564h-26.905l-.01-250.179h26.906c2.209 0 4 1.812 4 4.048l.01 242.084c-.001 2.235-1.791 4.047-4.001 4.047z" fill="#e4e4e4"/><path d="m485.203 488h-458.406c-14.8 0-26.797-11.997-26.797-26.797v-20.636c0-2.277 1.846-4.123 4.123-4.123h503.755c2.277 0 4.123 1.846 4.123 4.123v20.636c-.001 14.8-11.998 26.797-26.798 26.797z" fill="#a9dbf5"/><path d="m507.879 436.444h-30.905c2.276 0 4.121 1.847 4.121 4.124v20.622c0 14.806-11.992 26.809-26.785 26.809h30.905c14.793.001 26.785-12.002 26.785-26.808v-20.622c0-2.278-1.845-4.125-4.121-4.125z" fill="#88c3e0"/><path d="m291.02 461.191h-70.04c-6.831 0-12.368-5.537-12.368-12.368v-12.379h94.776v12.379c0 6.831-5.537 12.368-12.368 12.368z" fill="#88c3e0"/><path d="m356.698 381.796h-116.921c-13.798 0-24.984-11.186-24.984-24.984v-117.072c0-13.798 11.186-24.984 24.984-24.984h116.921c13.798 0 24.984 11.186 24.984 24.984v117.072c0 13.798-11.186 24.984-24.984 24.984z" fill="#7be492"/><path d="m356.709 214.756h-30.905c13.792 0 24.973 11.191 24.973 24.995v117.049c0 13.805-11.181 24.995-24.973 24.995h30.905c13.792 0 24.973-11.191 24.973-24.995v-117.049c0-13.805-11.181-24.995-24.973-24.995z" fill="#45d987"/><path d="m245.698 348.801v-101.051c0-1.138.923-2.061 2.061-2.061h100.956c1.138 0 2.061.923 2.061 2.061v101.051c0 1.138-.923 2.061-2.061 2.061h-100.956c-1.138 0-2.061-.923-2.061-2.061z" fill="#f78e36"/><path d="m348.715 350.862h-100.956c-1.138 0-2.061-.923-2.061-2.061v-33.587h105.078v33.587c.001 1.138-.922 2.061-2.061 2.061z" fill="#29cef6"/><path d="m470.018 191.04h-116.921c-13.798 0-24.984-11.186-24.984-24.984v-117.072c0-13.798 11.186-24.984 24.984-24.984h116.921c13.798 0 24.984 11.186 24.984 24.984v117.072c0 13.798-11.186 24.984-24.984 24.984z" fill="#7be492"/><path d="m470.029 24h-30.905c13.792 0 24.973 11.191 24.973 24.995v117.049c0 13.805-11.181 24.995-24.973 24.995h30.905c13.792 0 24.973-11.191 24.973-24.995v-117.049c0-13.804-11.181-24.995-24.973-24.995z" fill="#45d987"/><path d="m359.018 158.045v-101.05c0-1.138.923-2.061 2.061-2.061h100.956c1.138 0 2.061.923 2.061 2.061v101.051c0 1.138-.923 2.061-2.061 2.061h-100.956c-1.138 0-2.061-.923-2.061-2.062z" fill="#f78e36"/><path d="m391.469 127.607v-40.174c0-3.667 3.961-5.892 6.995-3.93l31.064 20.087c2.825 1.827 2.825 6.034 0 7.861l-31.064 20.087c-3.034 1.961-6.995-.265-6.995-3.931z" fill="#f3f3f3"/><path d="m298.237 315.214h52.539l-24.656-31.077c-.825-1.04-2.402-1.04-3.227 0z" fill="#e4e4e4"/><path d="m245.698 315.214h64.862l-30.817-38.842c-.825-1.04-2.402-1.04-3.227 0z" fill="#f3f3f3"/><path d="m166.115 242.596h-116.922c-13.798 0-24.984-11.186-24.984-24.984v-117.072c0-13.798 11.186-24.984 24.984-24.984h116.921c13.798 0 24.984 11.186 24.984 24.984v117.072c.001 13.798-11.185 24.984-24.983 24.984z" fill="#7be492"/><path d="m166.126 75.556h-30.906c13.792 0 24.973 11.191 24.973 24.995v117.049c0 13.805-11.181 24.995-24.973 24.995h30.905c13.792 0 24.973-11.191 24.973-24.995v-117.049c.001-13.805-11.18-24.995-24.972-24.995z" fill="#45d987"/><path d="m55.115 209.601v-101.051c0-1.138.923-2.061 2.061-2.061h100.956c1.138 0 2.061.923 2.061 2.061v101.051c0 1.138-.923 2.061-2.061 2.061h-100.956c-1.138 0-2.061-.923-2.061-2.061z" fill="#f78e36"/><path d="m129.75 126.603h-40.249c-4.142 0-7.5 3.361-7.5 7.507v38.84h-.837c-4.142 0-7.5 3.361-7.5 7.507s3.358 7.507 7.5 7.507h8.337c4.142 0 7.5-3.361 7.5-7.507v-38.84h25.249v31.333h-2.275c-4.142 0-7.5 3.361-7.5 7.507s3.358 7.507 7.5 7.507h9.775c4.142 0 7.5-3.361 7.5-7.507v-46.346c0-4.148-3.358-7.508-7.5-7.508z" fill="#f3f3f3"/></g></svg>