<svg id="Layer_1" enable-background="new 0 0 512 512" height="512" viewBox="0 0 512 512" width="512" xmlns="http://www.w3.org/2000/svg"><g><path d="m.024 205.005c-1.101 46.482 36.212 84.514 82.391 84.514 35.201 0 65.234-22.104 77.041-53.2 3.19-8.401 11.379-13.839 20.356-13.839h316.736c8.534 0 15.453-6.926 15.453-15.471 0-8.544-6.918-15.471-15.453-15.471h-316.994c-8.845 0-16.907-5.371-20.03-13.655-11.584-30.733-40.958-52.728-75.555-53.369-45.078-.835-82.876 35.367-83.945 80.491zm30.881 2.005c0-28.435 23.107-51.569 51.509-51.569s51.509 23.134 51.509 51.569-23.107 51.569-51.509 51.569-51.509-23.134-51.509-51.569z" fill="#43809f"/><g><path d="m496.547 191.539h-30.905c8.534 0 15.453 6.927 15.453 15.471s-6.918 15.471-15.453 15.471h30.905c8.534 0 15.453-6.927 15.453-15.471s-6.918-15.471-15.453-15.471z" fill="#3a7190"/></g><path d="m313.164 387.199 69.044-27.72c.985-.395 2.084-.395 3.069 0l69.044 27.72c2.707 1.087 5.655-.908 5.655-3.827v-191.833h-152.467v191.833c0 2.919 2.948 4.914 5.655 3.827z" fill="#f78e36"/><g><path d="m429.07 191.539v185.523l25.25 10.137c2.707 1.087 5.655-.908 5.655-3.827v-191.833z" fill="#f86f1b"/></g><g fill="#29cef6"><path d="m193.74 287.737h64.32c4.142 0 7.5-3.357 7.5-7.5s-3.358-7.5-7.5-7.5h-64.32c-4.142 0-7.5 3.357-7.5 7.5s3.358 7.5 7.5 7.5z"/><path d="m258.061 303.679h-64.32c-4.142 0-7.5 3.357-7.5 7.5s3.358 7.5 7.5 7.5h64.32c4.142 0 7.5-3.357 7.5-7.5s-3.358-7.5-7.5-7.5z"/><path d="m258.061 334.619h-115.381c-4.142 0-7.5 3.357-7.5 7.5s3.358 7.5 7.5 7.5h115.38c4.142 0 7.5-3.357 7.5-7.5s-3.357-7.5-7.499-7.5z"/><path d="m258.061 365.561h-115.381c-4.142 0-7.5 3.357-7.5 7.5s3.358 7.5 7.5 7.5h115.38c4.142 0 7.5-3.357 7.5-7.5s-3.357-7.5-7.499-7.5z"/></g></g></svg>