<svg id="Layer_1" enable-background="new 0 0 512 512" height="512" viewBox="0 0 512 512" width="512" xmlns="http://www.w3.org/2000/svg"><g><path d="m466.483 510.19-103.44-103.44c-2.414-2.414-2.414-6.328 0-8.741l34.966-34.966c2.414-2.414 6.328-2.414 8.741 0l103.44 103.44c2.414 2.414 2.414 6.328 0 8.741l-34.966 34.966c-2.414 2.413-6.327 2.413-8.741 0z" fill="#f78e36"/><path d="m398.009 363.043-21.853 21.853c2.414-2.414 6.328-2.414 8.741 0l103.44 103.44c2.414 2.414 2.414 6.328 0 8.741l21.853-21.853c2.414-2.414 2.414-6.327 0-8.741l-103.44-103.44c-2.414-2.414-6.328-2.414-8.741 0z" fill="#f86f1b"/><path d="m341.257 323.029h30.905v67.362h-30.905z" fill="#4380a0" transform="matrix(.707 -.707 .707 .707 -147.754 356.71)"/><path d="m384.222 399.674h61.811v30.905h-61.811z" fill="#7be492" transform="matrix(.707 -.707 .707 .707 -171.951 415.127)"/><path d="m410.601 388.748h30.905v30.905h-30.905z" fill="#45d987" transform="matrix(.707 -.707 .707 .707 -161.025 419.653)"/><path d="m108.227 479.857c-.574 4.068-1.944 9.893-3.168 14.627-1.143 4.422-5.123 7.514-9.69 7.514h-13.985c-4.567 0-8.547-3.092-9.69-7.514-1.224-4.734-2.594-10.559-3.168-14.627-.427-3.031-2.248-5.684-4.9-7.211l-12.922-7.442c-2.649-1.526-5.854-1.774-8.689-.63-3.825 1.543-9.592 3.278-14.325 4.591-4.395 1.219-9.058-.676-11.343-4.624l-6.983-12.065c-2.287-3.952-1.597-8.945 1.666-12.139 3.501-3.428 7.88-7.531 11.127-10.06 2.413-1.88 3.803-4.78 3.803-7.839v-14.865c0-3.059-1.39-5.959-3.803-7.839-3.247-2.53-7.625-6.633-11.127-10.06-3.263-3.194-3.953-8.187-1.666-12.139l6.983-12.065c2.285-3.948 6.947-5.842 11.343-4.624 4.733 1.312 10.5 3.048 14.325 4.591 2.835 1.144 6.04.896 8.689-.63l12.922-7.442c2.652-1.527 4.473-4.181 4.9-7.211.574-4.067 1.944-9.893 3.168-14.627 1.143-4.422 5.123-7.514 9.69-7.514h13.985c4.567 0 8.547 3.092 9.69 7.514 1.224 4.734 2.594 10.559 3.168 14.627.427 3.031 2.248 5.684 4.9 7.211l12.922 7.442c2.649 1.526 5.854 1.774 8.689.63 3.825-1.543 9.592-3.278 14.325-4.591 4.395-1.219 9.058.676 11.343 4.624l6.983 12.065c2.287 3.952 1.597 8.945-1.666 12.139-3.501 3.428-7.88 7.53-11.127 10.06-2.413 1.88-3.803 4.78-3.803 7.839v14.865c0 3.059 1.39 5.959 3.803 7.839 3.247 2.53 7.625 6.633 11.127 10.06 3.263 3.194 3.953 8.187 1.666 12.139l-6.983 12.065c-2.285 3.948-6.947 5.843-11.343 4.624-4.733-1.312-10.5-3.048-14.325-4.591-2.835-1.144-6.04-.896-8.689.63l-12.922 7.442c-2.652 1.527-4.472 4.18-4.9 7.211zm14.582-64.852c0-18.97-15.416-34.348-34.433-34.348s-34.433 15.378-34.433 34.348 15.416 34.348 34.433 34.348 34.433-15.379 34.433-34.348z" fill="#ffc328"/><circle cx="200.885" cy="200.885" fill="#43809f" r="200.885"/><path d="m200.885 0c-5.199 0-10.353.198-15.453.586 103.726 7.891 185.433 94.553 185.433 200.3s-81.707 192.409-185.433 200.3c5.1.388 10.253.586 15.453.586 110.946 0 200.885-89.939 200.885-200.885s-89.939-200.887-200.885-200.887z" fill="#3a7190"/><circle cx="200.885" cy="200.885" fill="#f3f3f3" r="169.98"/><path d="m200.885 30.905c-5.21 0-10.361.249-15.453.71 86.512 7.834 154.527 80.752 154.527 169.27s-68.015 161.436-154.527 169.27c5.092.461 10.243.71 15.453.71 93.727 0 169.98-76.253 169.98-169.98s-76.252-169.98-169.98-169.98z" fill="#e4e4e4"/><path d="m424.051 189.361c-.574 4.067-1.944 9.893-3.168 14.627-1.143 4.422-5.123 7.514-9.69 7.514h-13.985c-4.567 0-8.547-3.092-9.69-7.514-1.224-4.734-2.594-10.559-3.168-14.627-.427-3.031-2.248-5.684-4.9-7.211l-12.922-7.442c-2.649-1.526-5.854-1.774-8.689-.63-3.825 1.543-9.592 3.278-14.325 4.591-4.395 1.219-9.058-.676-11.343-4.624l-6.983-12.065c-2.287-3.952-1.597-8.945 1.666-12.139 3.501-3.428 7.88-7.531 11.127-10.06 2.413-1.88 3.803-4.78 3.803-7.839v-14.865c0-3.059-1.39-5.959-3.803-7.839-3.247-2.53-7.625-6.633-11.127-10.06-3.263-3.194-3.953-8.187-1.666-12.139l6.983-12.065c2.285-3.948 6.947-5.843 11.343-4.624 4.733 1.312 10.5 3.048 14.325 4.591 2.835 1.144 6.04.896 8.689-.63l12.922-7.442c2.652-1.527 4.473-4.181 4.9-7.211.574-4.067 1.944-9.893 3.168-14.627 1.143-4.422 5.123-7.514 9.69-7.514h13.985c4.567 0 8.547 3.092 9.69 7.514 1.224 4.734 2.594 10.559 3.168 14.627.427 3.031 2.248 5.684 4.9 7.211l12.922 7.442c2.649 1.526 5.854 1.774 8.689.63 3.825-1.543 9.592-3.278 14.325-4.591 4.395-1.219 9.058.676 11.343 4.624l6.983 12.065c2.287 3.952 1.597 8.945-1.666 12.139-3.501 3.428-7.88 7.531-11.127 10.06-2.413 1.88-3.803 4.78-3.803 7.839v14.865c0 3.059 1.39 5.959 3.803 7.839 3.247 2.53 7.625 6.633 11.127 10.06 3.263 3.194 3.953 8.187 1.666 12.139l-6.983 12.065c-2.285 3.948-6.947 5.842-11.343 4.624-4.733-1.312-10.5-3.048-14.325-4.591-2.835-1.144-6.04-.896-8.689.63l-12.922 7.442c-2.652 1.527-4.473 4.18-4.9 7.211zm14.582-64.853c0-18.97-15.416-34.348-34.433-34.348s-34.433 15.378-34.433 34.348 15.416 34.348 34.433 34.348 34.433-15.378 34.433-34.348z" fill="#f78e36"/><path d="m302.287 232.73h-44.963l-25.69-65.672c-1.133-2.898-3.974-4.826-7.051-4.767-3.112.027-5.884 1.974-6.966 4.892l-37.618 101.443-27.294-77.361c-.98-2.78-3.498-4.728-6.436-4.978-2.941-.251-5.748 1.244-7.186 3.817l-23.8 42.627h-23.856c-4.143 0-7.5 3.358-7.5 7.5s3.357 7.5 7.5 7.5h28.26c2.718 0 5.224-1.471 6.549-3.844l17.85-31.971 28.666 81.249c1.051 2.979 3.854 4.979 7.013 5.004h.061c3.133 0 5.94-1.95 7.031-4.892l37.981-102.422 20.384 52.107c1.125 2.875 3.896 4.768 6.984 4.768h50.082c4.143 0 7.5-3.358 7.5-7.5s-3.358-7.5-7.501-7.5z" fill="#43809f"/></g></svg>