<svg id="Layer_1" enable-background="new 0 0 512 512" height="512" viewBox="0 0 512 512" width="512" xmlns="http://www.w3.org/2000/svg"><g><path d="m293.5 504.5h-224c-16.569 0-30-13.431-30-30v-437c0-16.569 13.431-30 30-30h224c16.569 0 30 13.431 30 30v437c0 16.569-13.431 30-30 30z" fill="#29cef6"/><path d="m293.5 7.5h-30c16.569 0 30 13.431 30 30v437c0 16.569-13.431 30-30 30h30c16.569 0 30-13.431 30-30v-437c0-16.569-13.431-30-30-30z" fill="#22b5ed"/><path d="m323.5 440v34.5c0 16.569-13.431 30-30 30h-224c-16.569 0-30-13.431-30-30v-34.5z" fill="#4380a0"/><path d="m293.5 440v34.5c0 16.569-13.431 30-30 30h30c16.569 0 30-13.431 30-30v-34.5z" fill="#3b7191"/><path d="m201.5 464h-40c-4.142 0-7.5 3.357-7.5 7.5s3.358 7.5 7.5 7.5h40c4.142 0 7.5-3.357 7.5-7.5s-3.358-7.5-7.5-7.5z" fill="#a9dbf5"/><path d="m243.5 48h-124c-8.837 0-16-7.163-16-16v-24h156v24c0 8.837-7.163 16-16 16z" fill="#43809f"/><path d="m269.5 394h-172c-4.418 0-8-3.582-8-8v-110c0-4.418 3.582-8 8-8h172c4.418 0 8 3.582 8 8v110c0 4.418-3.582 8-8 8z" fill="#7be492"/><path d="m269.5 224h-172c-4.418 0-8-3.582-8-8v-110c0-4.418 3.582-8 8-8h172c4.418 0 8 3.582 8 8v110c0 4.418-3.582 8-8 8z" fill="#ffc328"/><path d="m293.5 0h-224c-20.678 0-37.5 16.822-37.5 37.5v437c0 20.678 16.822 37.5 37.5 37.5h224c20.678 0 37.5-16.822 37.5-37.5v-437c0-20.678-16.822-37.5-37.5-37.5zm22.5 474.5c0 12.406-10.094 22.5-22.5 22.5h-224c-12.407 0-22.5-10.094-22.5-22.5v-437c0-12.406 10.093-22.5 22.5-22.5h224c12.406 0 22.5 10.094 22.5 22.5z" fill="#3a7190"/><path d="m350.588 34.02c-60.344 1.083-110.411 44.203-122.146 101.297-.225 1.094-.88 2.051-1.831 2.638l-33.181 20.482c-1.907 1.177-1.907 3.948 0 5.126l33.182 20.482c.951.587 1.606 1.544 1.831 2.638 11.884 57.826 63.092 101.317 124.473 101.317 70.493 0 127.581-57.358 127.08-127.921-.495-69.912-59.46-127.315-129.408-126.059z" fill="#f3f3f3"/><path d="m350.588 34.02c-4.341.078-8.626.38-12.85.883 62.166 7.49 111.784 61.07 112.239 125.176.464 65.483-48.669 119.585-112.084 127.036 4.928.58 9.94.885 15.023.885 70.493 0 127.581-57.358 127.08-127.921-.495-69.912-59.46-127.315-129.408-126.059z" fill="#e4e4e4"/><path d="m387.119 109.235c-15.588-.183-28.854 9.549-33.472 13.387-1.013.842-2.475.842-3.488 0-4.618-3.838-17.884-13.57-33.472-13.387-20.049.236-35.321 17.712-34.267 37.735 2.329 44.242 56.293 72.3 67.469 77.647 1.279.612 2.75.612 4.029 0 11.176-5.347 65.14-33.405 67.468-77.647 1.055-20.024-14.218-37.499-34.267-37.735z" fill="#f78e36"/><g><path d="m387.119 109.235c-5.824-.069-11.324 1.248-16.17 3.123 12.776 5.922 21.23 19.544 20.437 34.612-1.804 34.279-34.602 58.839-54.483 70.65 5.778 3.433 10.469 5.793 12.985 6.997 1.279.612 2.75.612 4.029 0 11.176-5.347 65.14-33.405 67.468-77.647 1.056-20.024-14.217-37.499-34.266-37.735z" fill="#f86f1b"/></g></g></svg>