<?xml version="1.0" encoding="utf-8"?>
<!-- Generator: Adobe Illustrator 24.0.0, SVG Export Plug-In . SVG Version: 6.00 Build 0)  -->
<svg version="1.1" id="Layer_1" xmlns="http://www.w3.org/2000/svg" xmlns:xlink="http://www.w3.org/1999/xlink" x="0px" y="0px"
	 viewBox="0 0 641 481" style="enable-background:new 0 0 641 481;" xml:space="preserve">
<style type="text/css">
	.st0{fill:none;}
	.st1{fill:url(#SVGID_1_);stroke:#000000;stroke-width:0.5;stroke-miterlimit:10;}
	.st2{fill:url(#SVGID_2_);}
	.st3{fill:url(#SVGID_3_);}
	.st4{fill:url(#SVGID_4_);stroke:#000000;stroke-width:0.5;stroke-miterlimit:10;}
	.st5{fill:url(#SVGID_5_);stroke:#000000;stroke-width:0.5;stroke-miterlimit:10;}
	.st6{fill:url(#SVGID_6_);}
	.st7{fill:url(#SVGID_7_);}
	.st8{fill:url(#SVGID_8_);stroke:#000000;stroke-width:0.5;stroke-miterlimit:10;}
	.st9{fill:url(#SVGID_9_);}
	.st10{fill:url(#SVGID_10_);stroke:#000000;stroke-width:0.5;stroke-miterlimit:10;}
	.st11{fill:url(#SVGID_11_);stroke:#000000;stroke-width:0.5;stroke-miterlimit:10;}
	.st12{fill:#353D4A;}
	.st13{fill:#303544;}
	.st14{fill:url(#SVGID_12_);}
	.st15{fill:url(#SVGID_13_);}
	.st16{fill:url(#SVGID_14_);}
	.st17{fill:url(#SVGID_15_);}
	.st18{fill:#94FCDB;}
	.st19{fill:#85DEC4;}
	.st20{fill:#767678;}
	.st21{fill:#838383;}
	.st22{fill:#D7B66C;}
	.st23{fill:#F4CA72;}
	.st24{fill:#E57965;}
	.st25{fill:#CB7061;}
	.st26{fill:url(#SVGID_16_);}
	.st27{fill:url(#SVGID_17_);}
	.st28{fill:url(#SVGID_18_);}
	.st29{fill:url(#SVGID_19_);}
	.st30{fill:url(#SVGID_20_);}
	.st31{fill:none;stroke:#000000;stroke-width:0.5;stroke-miterlimit:9.9999;}
	.st32{fill:url(#SVGID_21_);}
	.st33{fill:url(#SVGID_22_);}
	.st34{fill:url(#SVGID_23_);}
	.st35{fill:url(#SVGID_24_);}
	.st36{fill:url(#SVGID_25_);}
	.st37{fill:url(#SVGID_26_);}
	.st38{fill:url(#SVGID_27_);}
	.st39{fill:url(#SVGID_28_);}
	.st40{fill:url(#SVGID_29_);}
	.st41{fill:url(#SVGID_30_);}
	.st42{fill:url(#SVGID_31_);}
</style>
<title>webdevelopment</title>
<g id="Layer_2_1_">
	<rect x="0.5" y="0.5" class="st0" width="640" height="480"/>
</g>
<g id="Layer_3">
	<linearGradient id="SVGID_1_" gradientUnits="userSpaceOnUse" x1="46.5" y1="436.7" x2="54.4" y2="436.7">
		<stop  offset="2.234363e-03" style="stop-color:#1569A9"/>
		<stop  offset="1" style="stop-color:#08ACDA"/>
	</linearGradient>
	<polygon class="st1" points="54.4,434.7 50.4,438.7 46.5,434.7 	"/>
	<linearGradient id="SVGID_2_" gradientUnits="userSpaceOnUse" x1="567.6" y1="301.1" x2="587.7" y2="301.1">
		<stop  offset="2.234363e-03" style="stop-color:#1569A9"/>
		<stop  offset="1" style="stop-color:#08ACDA"/>
	</linearGradient>
	<polygon class="st2" points="587.7,296.1 577.6,306.1 567.6,296.1 	"/>
	<linearGradient id="SVGID_3_" gradientUnits="userSpaceOnUse" x1="539.3" y1="347.15" x2="571.2" y2="347.15">
		<stop  offset="2.234363e-03" style="stop-color:#1569A9"/>
		<stop  offset="1" style="stop-color:#08ACDA"/>
	</linearGradient>
	<polygon class="st3" points="571.2,339.2 555.2,355.1 539.3,339.2 	"/>
	<linearGradient id="SVGID_4_" gradientUnits="userSpaceOnUse" x1="40" y1="42.75" x2="52.9" y2="42.75">
		<stop  offset="2.234363e-03" style="stop-color:#1569A9"/>
		<stop  offset="1" style="stop-color:#08ACDA"/>
	</linearGradient>
	<polygon class="st4" points="52.9,39.5 46.5,46 40,39.5 	"/>
	<linearGradient id="SVGID_5_" gradientUnits="userSpaceOnUse" x1="17.9" y1="123" x2="37.9" y2="123">
		<stop  offset="2.234363e-03" style="stop-color:#1569A9"/>
		<stop  offset="1" style="stop-color:#08ACDA"/>
	</linearGradient>
	<polygon class="st5" points="37.9,118 27.9,128 17.9,118 	"/>
	<linearGradient id="SVGID_6_" gradientUnits="userSpaceOnUse" x1="625.2" y1="424.95" x2="640.5" y2="424.95">
		<stop  offset="2.234363e-03" style="stop-color:#1569A9"/>
		<stop  offset="1" style="stop-color:#08ACDA"/>
	</linearGradient>
	<polygon class="st6" points="640.5,421.1 632.9,428.8 625.2,421.1 	"/>
	<linearGradient id="SVGID_7_" gradientUnits="userSpaceOnUse" x1="576.9" y1="107.55" x2="598.8" y2="107.55">
		<stop  offset="2.234363e-03" style="stop-color:#1569A9"/>
		<stop  offset="1" style="stop-color:#08ACDA"/>
	</linearGradient>
	<polygon class="st7" points="598.8,102.1 587.9,113 576.9,102.1 	"/>
	<linearGradient id="SVGID_8_" gradientUnits="userSpaceOnUse" x1="283.7" y1="73.2" x2="298.9" y2="73.2">
		<stop  offset="2.234363e-03" style="stop-color:#1569A9"/>
		<stop  offset="1" style="stop-color:#08ACDA"/>
	</linearGradient>
	<polygon class="st8" points="298.9,69.4 291.3,77 283.7,69.4 	"/>
	<linearGradient id="SVGID_9_" gradientUnits="userSpaceOnUse" x1="564.7" y1="69.35" x2="577.6" y2="69.35">
		<stop  offset="2.234363e-03" style="stop-color:#1569A9"/>
		<stop  offset="1" style="stop-color:#08ACDA"/>
	</linearGradient>
	<polygon class="st9" points="577.6,66.1 571.2,72.6 564.7,66.1 	"/>
	<linearGradient id="SVGID_10_" gradientUnits="userSpaceOnUse" x1="156.7" y1="28.25" x2="180.6" y2="28.25">
		<stop  offset="2.234363e-03" style="stop-color:#1569A9"/>
		<stop  offset="1" style="stop-color:#08ACDA"/>
	</linearGradient>
	<polygon class="st10" points="180.6,22.3 168.7,34.2 156.7,22.3 	"/>
	<linearGradient id="SVGID_11_" gradientUnits="userSpaceOnUse" x1="80.5" y1="412.65" x2="114.5" y2="412.65">
		<stop  offset="2.234363e-03" style="stop-color:#1569A9"/>
		<stop  offset="1" style="stop-color:#08ACDA"/>
	</linearGradient>
	<polygon class="st11" points="114.5,404.2 97.5,421.1 80.5,404.2 	"/>
	<polygon class="st12" points="245.6,213.1 142.3,213.1 142.3,109.9 	"/>
	<polygon class="st13" points="142.4,109.9 245.6,109.9 245.6,213.1 	"/>
	<linearGradient id="SVGID_12_" gradientUnits="userSpaceOnUse" x1="157.2599" y1="447.216" x2="233.4869" y2="401.9562">
		<stop  offset="2.234363e-03" style="stop-color:#1569A9"/>
		<stop  offset="1" style="stop-color:#08ACDA"/>
	</linearGradient>
	<polygon class="st14" points="246.9,428.7 143.8,428.7 143.8,420.5 	"/>
	<linearGradient id="SVGID_13_" gradientUnits="userSpaceOnUse" x1="265.8908" y1="405.0984" x2="108.2738" y2="448.6729">
		<stop  offset="2.234363e-03" style="stop-color:#1569A9"/>
		<stop  offset="1" style="stop-color:#08ACDA"/>
	</linearGradient>
	<polygon class="st15" points="143.8,420.5 246.9,420.5 246.9,428.7 	"/>
	<linearGradient id="SVGID_14_" gradientUnits="userSpaceOnUse" x1="253.5017" y1="443.3525" x2="316.8208" y2="417.1398">
		<stop  offset="2.234363e-03" style="stop-color:#1569A9"/>
		<stop  offset="1" style="stop-color:#08ACDA"/>
	</linearGradient>
	<polygon class="st16" points="350.7,428.7 246.9,428.7 246.9,420.5 	"/>
	<linearGradient id="SVGID_15_" gradientUnits="userSpaceOnUse" x1="360.7018" y1="402.3074" x2="254.8295" y2="440.435">
		<stop  offset="2.234363e-03" style="stop-color:#1569A9"/>
		<stop  offset="1" style="stop-color:#08ACDA"/>
	</linearGradient>
	<polygon class="st17" points="246.9,420.5 350.7,420.5 350.7,428.7 	"/>
	<polygon class="st12" points="349,213.1 245.8,213.1 245.8,109.9 	"/>
	<polygon class="st13" points="245.8,109.9 349,109.9 349,213.1 	"/>
	<polygon class="st12" points="245.7,316.4 142.4,316.4 142.4,213.1 	"/>
	<polygon class="st13" points="142.5,213.1 245.7,213.1 245.7,316.2 	"/>
	<polygon class="st12" points="349.1,316.4 245.8,316.4 245.8,213.1 	"/>
	<polygon class="st13" points="245.9,213.1 349.1,213.1 349.1,316.2 	"/>
	<g>
		<polygon class="st18" points="271.6,197.3 329.7,197.3 329.7,205.1 		"/>
		<polygon class="st19" points="329.7,205.1 271.6,205.1 271.6,197.3 		"/>
		<polygon class="st20" points="159.8,197.3 198.8,197.3 198.8,205.1 		"/>
		<polygon class="st21" points="198.8,205.1 159.8,205.1 159.8,197.3 		"/>
		<polygon class="st20" points="161.8,204.3 161.8,317 159.8,317 		"/>
		<polygon class="st21" points="159.8,316.9 159.8,204.3 161.8,204.3 		"/>
		<polygon class="st22" points="206.2,197.3 261.5,197.3 261.5,205.1 		"/>
		<polygon class="st23" points="261.5,205.1 206.2,205.1 206.2,197.3 		"/>
		<polygon class="st19" points="258.7,223.8 288.7,223.8 288.7,231.4 		"/>
		<polygon class="st18" points="288.7,231.4 258.6,231.4 258.6,223.8 		"/>
		<polygon class="st23" points="297.5,223.8 329.2,223.8 329.2,231.4 		"/>
		<polygon class="st22" points="329,231.4 297.5,231.4 297.5,223.8 		"/>
		<polygon class="st20" points="190.3,255.4 226.9,255.4 226.9,261.6 		"/>
		<polygon class="st21" points="226.8,261.6 190.3,261.6 190.3,255.4 		"/>
		<polygon class="st18" points="234.3,255.4 269.9,255.4 269.9,261.6 		"/>
		<polygon class="st19" points="269.9,261.6 234.3,261.6 234.3,255.4 		"/>
		<polygon class="st22" points="279.4,255.4 329.7,255.4 329.7,261.6 		"/>
		<polygon class="st23" points="329.7,261.6 279.4,261.6 279.4,255.4 		"/>
		<polygon class="st22" points="190.3,291.3 206,291.3 206,297.4 		"/>
		<polygon class="st23" points="206,297.5 190.3,297.5 190.3,291.3 		"/>
		<polygon class="st20" points="175.1,230.7 175.1,303.8 173.2,303.8 		"/>
		<polygon class="st21" points="173.2,303.7 173.2,230.7 175.1,230.7 		"/>
		<polygon class="st24" points="175.1,305.6 175.1,313.5 172,313.5 		"/>
		<polygon class="st25" points="172,313.5 172,305.6 175.1,305.6 		"/>
		<polygon class="st20" points="213.5,291.3 240.5,291.3 240.5,297.4 		"/>
		<polygon class="st21" points="240.5,297.5 213.5,297.5 213.5,291.3 		"/>
		<polygon class="st18" points="248.7,291.3 329.2,291.3 329.2,297.4 		"/>
		<polygon class="st19" points="329.2,297.5 248.7,297.5 248.7,291.3 		"/>
		<polygon class="st21" points="190.3,273.6 240.3,273.6 240.3,279.7 		"/>
		<polygon class="st20" points="240.3,279.7 190.3,279.7 190.3,273.6 		"/>
		<polygon class="st19" points="248.7,273.6 329.7,273.6 329.7,279.7 		"/>
		<polygon class="st18" points="329.7,279.7 248.7,279.7 248.7,273.6 		"/>
		<polygon class="st23" points="173,223.8 199.5,223.8 199.5,231.4 		"/>
		<polygon class="st22" points="199.5,231.4 173,231.4 173,223.8 		"/>
		<polygon class="st21" points="206.2,223.8 252,223.8 252,231.4 		"/>
		<polygon class="st20" points="252,231.4 206.2,231.4 206.2,223.8 		"/>
		<polygon class="st24" points="280.5,120.7 338.5,120.7 338.5,128.5 		"/>
		<polygon class="st25" points="338.5,128.5 280.5,128.5 280.5,120.7 		"/>
	</g>
	<polygon class="st12" points="246.7,420.3 143.4,420.3 143.4,317 	"/>
	<polygon class="st13" points="143.5,317 246.7,317 246.7,420.2 	"/>
	<polygon class="st12" points="350.1,420.3 246.8,420.3 246.8,317 	"/>
	<polygon class="st13" points="246.9,317 350.1,317 350.1,420.2 	"/>
</g>
<polygon class="st24" points="143.8,382.9 195.3,382.9 195.3,420.4 "/>
<polygon class="st25" points="195.3,420.4 143.8,420.4 143.8,382.9 "/>
<polygon class="st24" points="194.9,382.8 246.4,382.8 246.4,420.3 "/>
<polygon class="st25" points="246.4,420.3 194.9,420.3 194.9,382.8 "/>
<polygon class="st25" points="246.4,382.9 298.4,382.9 298.4,420.3 "/>
<polygon class="st24" points="298.4,420.3 246.4,420.3 246.4,382.9 "/>
<polygon class="st25" points="298,382.8 350.1,382.8 350.1,420.3 "/>
<polygon class="st24" points="350.1,420.3 298,420.3 298,382.8 "/>
<g>
	<g>
		
			<linearGradient id="SVGID_16_" gradientUnits="userSpaceOnUse" x1="505.3479" y1="315.4633" x2="475.0837" y2="283.1404" gradientTransform="matrix(1 0 0 -1 0 482)">
			<stop  offset="2.234363e-03" style="stop-color:#1569A9"/>
			<stop  offset="1" style="stop-color:#08ACDA"/>
		</linearGradient>
		<polygon class="st26" points="484.6,155.7 484.6,219.5 484.6,219.5 516.5,187.6 		"/>
		
			<linearGradient id="SVGID_17_" gradientUnits="userSpaceOnUse" x1="455.2846" y1="326.9721" x2="485.5489" y2="289.2962" gradientTransform="matrix(1 0 0 -1 0 482)">
			<stop  offset="2.234363e-03" style="stop-color:#1569A9"/>
			<stop  offset="1" style="stop-color:#08ACDA"/>
		</linearGradient>
		<polygon class="st27" points="484.6,155.7 452.7,187.6 484.6,219.5 		"/>
		
			<linearGradient id="SVGID_18_" gradientUnits="userSpaceOnUse" x1="437.041" y1="247.2472" x2="406.7767" y2="214.9242" gradientTransform="matrix(1 0 0 -1 0 482)">
			<stop  offset="2.234363e-03" style="stop-color:#1569A9"/>
			<stop  offset="1" style="stop-color:#08ACDA"/>
		</linearGradient>
		<polygon class="st28" points="416.3,223.9 416.3,287.7 416.3,287.7 448.2,255.8 		"/>
		
			<linearGradient id="SVGID_19_" gradientUnits="userSpaceOnUse" x1="386.9918" y1="258.7718" x2="417.256" y2="221.096" gradientTransform="matrix(1 0 0 -1 0 482)">
			<stop  offset="2.234363e-03" style="stop-color:#1569A9"/>
			<stop  offset="1" style="stop-color:#08ACDA"/>
		</linearGradient>
		<polygon class="st29" points="416.3,223.9 384.4,255.8 416.3,287.7 416.3,223.9 		"/>
	</g>
	<g>
		<path class="st0" d="M522.3,292.9L522.3,292.9L522.3,292.9z"/>
		<polygon class="st0" points="522.3,292.9 522.4,292.9 522.3,292.8 		"/>
		
			<linearGradient id="SVGID_20_" gradientUnits="userSpaceOnUse" x1="505.642" y1="251.7219" x2="525.2006" y2="185.4288" gradientTransform="matrix(1 0 0 -1 0 482)">
			<stop  offset="2.234363e-03" style="stop-color:#1569A9"/>
			<stop  offset="1" style="stop-color:#08ACDA"/>
		</linearGradient>
		<polygon class="st30" points="522,292.1 521.9,292.1 522.3,292.8 538,277.2 485.5,224.8 521.9,292 		"/>
		<polygon class="st31" points="521.9,292 521.9,292.1 522,292.1 		"/>
		
			<linearGradient id="SVGID_21_" gradientUnits="userSpaceOnUse" x1="459.8308" y1="231.9977" x2="501.6243" y2="224.1743" gradientTransform="matrix(1 0 0 -1 0 482)">
			<stop  offset="2.234363e-03" style="stop-color:#1569A9"/>
			<stop  offset="1" style="stop-color:#08ACDA"/>
		</linearGradient>
		<polygon class="st32" points="485.5,224.8 485.2,224.4 469.8,239.8 521.9,292 		"/>
		
			<linearGradient id="SVGID_22_" gradientUnits="userSpaceOnUse" x1="-81.0483" y1="156.7373" x2="-61.4898" y2="90.4445" gradientTransform="matrix(-1 2.433625e-03 2.433625e-03 1 405.4398 145.7429)">
			<stop  offset="2.234363e-03" style="stop-color:#1569A9"/>
			<stop  offset="1" style="stop-color:#08ACDA"/>
		</linearGradient>
		<polygon class="st33" points="470.4,240.5 470.4,240.5 470,239.8 454.4,255.4 507,307.7 470.4,240.6 		"/>
		
			<linearGradient id="SVGID_23_" gradientUnits="userSpaceOnUse" x1="-126.8594" y1="137.0132" x2="-85.0661" y2="129.1898" gradientTransform="matrix(-1 2.433625e-03 2.433625e-03 1 405.4398 145.7429)">
			<stop  offset="2.234363e-03" style="stop-color:#1569A9"/>
			<stop  offset="1" style="stop-color:#08ACDA"/>
		</linearGradient>
		<polygon class="st34" points="507,307.7 507.3,308.1 522.7,292.6 470.4,240.6 		"/>
	</g>
</g>
<g>
	<g>
		
			<linearGradient id="SVGID_24_" gradientUnits="userSpaceOnUse" x1="169.9802" y1="362.9444" x2="164.6817" y2="357.2854" gradientTransform="matrix(1 0 0 -1 0 482)">
			<stop  offset="2.234363e-03" style="stop-color:#1569A9"/>
			<stop  offset="1" style="stop-color:#08ACDA"/>
		</linearGradient>
		<polygon class="st35" points="166.3,117.2 166.3,128.3 166.3,128.3 171.9,122.7 		"/>
		
			<linearGradient id="SVGID_25_" gradientUnits="userSpaceOnUse" x1="161.2154" y1="364.9593" x2="166.5139" y2="358.3631" gradientTransform="matrix(1 0 0 -1 0 482)">
			<stop  offset="2.234363e-03" style="stop-color:#1569A9"/>
			<stop  offset="1" style="stop-color:#08ACDA"/>
		</linearGradient>
		<polygon class="st36" points="166.3,117.2 160.8,122.7 166.3,128.3 		"/>
		
			<linearGradient id="SVGID_26_" gradientUnits="userSpaceOnUse" x1="158.0213" y1="351.0014" x2="152.7228" y2="345.3424" gradientTransform="matrix(1 0 0 -1 0 482)">
			<stop  offset="2.234363e-03" style="stop-color:#1569A9"/>
			<stop  offset="1" style="stop-color:#08ACDA"/>
		</linearGradient>
		<polygon class="st37" points="154.4,129.1 154.4,140.3 154.4,140.3 160,134.7 		"/>
		
			<linearGradient id="SVGID_27_" gradientUnits="userSpaceOnUse" x1="149.259" y1="353.019" x2="154.5575" y2="346.4229" gradientTransform="matrix(1 0 0 -1 0 482)">
			<stop  offset="2.234363e-03" style="stop-color:#1569A9"/>
			<stop  offset="1" style="stop-color:#08ACDA"/>
		</linearGradient>
		<polygon class="st38" points="154.4,129.1 148.8,134.7 154.4,140.3 154.4,129.1 		"/>
	</g>
	<g>
		<path class="st0" d="M173,141.2L173,141.2L173,141.2z"/>
		<polygon class="st0" points="173,141.2 173,141.2 173,141.2 		"/>
		
			<linearGradient id="SVGID_28_" gradientUnits="userSpaceOnUse" x1="170.0317" y1="351.7848" x2="173.4559" y2="340.1785" gradientTransform="matrix(1 0 0 -1 0 482)">
			<stop  offset="2.234363e-03" style="stop-color:#1569A9"/>
			<stop  offset="1" style="stop-color:#08ACDA"/>
		</linearGradient>
		<polygon class="st39" points="172.9,141 172.9,141 173,141.2 175.7,138.4 166.5,129.3 172.9,141 		"/>
		<polygon class="st31" points="172.9,141 172.9,141 172.9,141 		"/>
		
			<linearGradient id="SVGID_29_" gradientUnits="userSpaceOnUse" x1="162.0113" y1="348.3316" x2="169.3283" y2="346.9619" gradientTransform="matrix(1 0 0 -1 0 482)">
			<stop  offset="2.234363e-03" style="stop-color:#1569A9"/>
			<stop  offset="1" style="stop-color:#08ACDA"/>
		</linearGradient>
		<polygon class="st40" points="166.5,129.3 166.5,129.2 163.8,131.9 172.9,141 		"/>
		
			<linearGradient id="SVGID_30_" gradientUnits="userSpaceOnUse" x1="238.6862" y1="-3.5023" x2="242.1104" y2="-15.1086" gradientTransform="matrix(-1 2.433625e-03 2.433625e-03 1 405.4398 145.7429)">
			<stop  offset="2.234363e-03" style="stop-color:#1569A9"/>
			<stop  offset="1" style="stop-color:#08ACDA"/>
		</linearGradient>
		<polygon class="st41" points="163.9,132 163.9,132 163.8,131.9 161.1,134.6 170.3,143.8 163.9,132 		"/>
		
			<linearGradient id="SVGID_31_" gradientUnits="userSpaceOnUse" x1="230.6658" y1="-6.9555" x2="237.9828" y2="-8.3252" gradientTransform="matrix(-1 2.433625e-03 2.433625e-03 1 405.4398 145.7429)">
			<stop  offset="2.234363e-03" style="stop-color:#1569A9"/>
			<stop  offset="1" style="stop-color:#08ACDA"/>
		</linearGradient>
		<polygon class="st42" points="170.3,143.8 170.3,143.8 173,141.1 163.9,132 		"/>
	</g>
</g>
<polygon class="st24" points="161.8,319.6 161.8,327.5 158.7,327.5 "/>
<polygon class="st25" points="158.7,327.5 158.7,319.6 161.8,319.6 "/>
<polygon class="st19" points="249.9,338.5 329.7,338.5 329.7,349.1 "/>
<polygon class="st18" points="329.7,349.1 249.9,349.1 249.9,338.5 "/>
<polygon class="st19" points="160,338.5 236,338.5 236,349.1 "/>
<polygon class="st18" points="236,349.1 160,349.1 160,338.5 "/>
<polygon class="st23" points="249.8,359 329.6,359 329.6,369.7 "/>
<polygon class="st22" points="329.6,369.7 249.8,369.7 249.8,359 "/>
<polygon class="st22" points="159.9,359 235.9,359 235.9,369.7 "/>
<polygon class="st23" points="235.9,369.7 159.9,369.7 159.9,359 "/>
</svg>
