<?xml version="1.0" encoding="utf-8"?>
<!-- Generator: Adobe Illustrator 24.0.0, SVG Export Plug-In . SVG Version: 6.00 Build 0)  -->
<svg version="1.1" id="Layer_1" xmlns="http://www.w3.org/2000/svg" xmlns:xlink="http://www.w3.org/1999/xlink" x="0px" y="0px"
	 viewBox="0 0 641 481" style="enable-background:new 0 0 641 481;" xml:space="preserve">
<style type="text/css">
	.st0{fill:none;}
	.st1{fill:url(#SVGID_1_);}
	.st2{fill:url(#SVGID_2_);}
	.st3{fill:url(#SVGID_3_);}
	.st4{fill:url(#SVGID_4_);}
	.st5{fill:url(#SVGID_5_);}
	.st6{fill:url(#SVGID_6_);}
	.st7{fill:url(#SVGID_7_);}
	.st8{fill:url(#SVGID_8_);}
	.st9{fill:url(#SVGID_9_);}
	.st10{fill:url(#SVGID_10_);}
	.st11{fill:url(#SVGID_11_);}
	.st12{fill:url(#SVGID_12_);}
	.st13{fill:url(#SVGID_13_);}
	.st14{fill:url(#SVGID_14_);}
	.st15{fill:url(#SVGID_15_);}
	.st16{fill:url(#SVGID_16_);}
	.st17{fill:url(#SVGID_17_);}
	.st18{fill:url(#SVGID_18_);}
	.st19{fill:url(#SVGID_19_);}
	.st20{fill:url(#SVGID_20_);}
	.st21{fill:url(#SVGID_21_);}
	.st22{fill:url(#SVGID_22_);}
	.st23{fill:url(#SVGID_23_);}
	.st24{fill:url(#SVGID_24_);}
	.st25{fill:url(#SVGID_25_);}
	.st26{fill:url(#SVGID_26_);}
	.st27{fill:url(#SVGID_27_);}
	.st28{fill:url(#SVGID_28_);}
	.st29{fill:url(#SVGID_29_);}
	.st30{fill:url(#SVGID_30_);}
	.st31{fill:url(#SVGID_31_);}
	.st32{fill:url(#SVGID_32_);}
	.st33{fill:url(#SVGID_33_);}
	.st34{fill:url(#SVGID_34_);}
	.st35{fill:url(#SVGID_35_);}
	.st36{fill:url(#SVGID_36_);}
	.st37{fill:url(#SVGID_37_);}
	.st38{fill:url(#SVGID_38_);}
	.st39{fill:url(#SVGID_39_);}
	.st40{fill:url(#SVGID_40_);}
	.st41{fill:url(#SVGID_41_);}
	.st42{fill:url(#SVGID_42_);}
	.st43{fill:url(#SVGID_43_);}
	.st44{fill:url(#SVGID_44_);}
	.st45{fill:url(#SVGID_45_);}
	.st46{fill:url(#SVGID_46_);}
	.st47{fill:url(#SVGID_47_);}
	.st48{fill:url(#SVGID_48_);}
	.st49{fill:url(#SVGID_49_);}
	.st50{fill:url(#SVGID_50_);}
	.st51{fill:url(#SVGID_51_);}
	.st52{fill:url(#SVGID_52_);}
	.st53{fill:url(#SVGID_53_);}
	.st54{fill:url(#SVGID_54_);}
	.st55{fill:url(#SVGID_55_);}
	.st56{fill:url(#SVGID_56_);}
	.st57{fill:url(#SVGID_57_);}
	.st58{fill:url(#SVGID_58_);}
	.st59{fill:url(#SVGID_59_);}
	.st60{fill:url(#SVGID_60_);}
	.st61{fill:url(#SVGID_61_);}
	.st62{fill:url(#SVGID_62_);}
	.st63{fill:url(#SVGID_63_);}
	.st64{fill:url(#SVGID_64_);}
	.st65{fill:url(#SVGID_65_);}
	.st66{fill:url(#SVGID_66_);}
	.st67{fill:url(#SVGID_67_);}
	.st68{fill:url(#SVGID_68_);}
	.st69{fill:url(#SVGID_69_);}
	.st70{fill:url(#SVGID_70_);}
	.st71{fill:url(#SVGID_71_);}
	.st72{fill:url(#SVGID_72_);}
	.st73{fill:url(#SVGID_73_);}
	.st74{fill:url(#SVGID_74_);}
	.st75{fill:url(#SVGID_75_);}
	.st76{fill:url(#SVGID_76_);}
	.st77{fill:url(#SVGID_77_);}
	.st78{fill:url(#SVGID_78_);}
	.st79{fill:url(#SVGID_79_);}
	.st80{fill:url(#SVGID_80_);}
	.st81{fill:url(#SVGID_81_);}
	.st82{fill:url(#SVGID_82_);}
	.st83{fill:url(#SVGID_83_);}
	.st84{fill:url(#SVGID_84_);}
	.st85{fill:url(#SVGID_85_);}
	.st86{fill:url(#SVGID_86_);}
	.st87{fill:url(#SVGID_87_);}
	.st88{fill:url(#SVGID_88_);}
	.st89{fill:url(#SVGID_89_);}
	.st90{fill:none;stroke:#000000;stroke-width:0.5;stroke-miterlimit:9.9999;}
	.st91{fill:url(#SVGID_90_);}
	.st92{fill:url(#SVGID_91_);}
	.st93{fill:url(#SVGID_92_);}
	.st94{fill:url(#SVGID_93_);}
	.st95{fill:url(#SVGID_94_);}
	.st96{fill:url(#SVGID_95_);}
	.st97{fill:url(#SVGID_96_);}
	.st98{fill:url(#SVGID_97_);}
	.st99{fill:url(#SVGID_98_);}
	.st100{fill:url(#SVGID_99_);}
	.st101{fill:url(#SVGID_100_);}
	.st102{fill:url(#SVGID_101_);}
	.st103{fill:url(#SVGID_102_);}
	.st104{fill:url(#SVGID_103_);}
	.st105{fill:url(#SVGID_104_);}
	.st106{fill:url(#SVGID_105_);}
	.st107{fill:url(#SVGID_106_);}
	.st108{fill:none;stroke:#000000;stroke-width:0.5;stroke-miterlimit:10;}
	.st109{fill:url(#SVGID_107_);}
</style>
<title>design</title>
<g id="Layer_2_1_">
	<rect x="0.5" y="0.5" class="st0" width="640" height="480"/>
</g>
<linearGradient id="SVGID_1_" gradientUnits="userSpaceOnUse" x1="387.9" y1="679.3" x2="397.2" y2="679.3" gradientTransform="matrix(1 0 0 1 0 -418)">
	<stop  offset="2.234363e-03" style="stop-color:#1569A9"/>
	<stop  offset="1" style="stop-color:#08ACDA"/>
</linearGradient>
<polygon class="st1" points="397.2,259 392.6,263.6 387.9,259 "/>
<linearGradient id="SVGID_2_" gradientUnits="userSpaceOnUse" x1="46.4" y1="831.5" x2="61.2" y2="831.5" gradientTransform="matrix(1 0 0 1 0 -418)">
	<stop  offset="2.234363e-03" style="stop-color:#1569A9"/>
	<stop  offset="1" style="stop-color:#08ACDA"/>
</linearGradient>
<polygon class="st2" points="61.2,409.8 53.8,417.2 46.4,409.8 "/>
<linearGradient id="SVGID_3_" gradientUnits="userSpaceOnUse" x1="115.5" y1="850.8" x2="124.7" y2="850.8" gradientTransform="matrix(1 0 0 1 0 -418)">
	<stop  offset="2.234363e-03" style="stop-color:#1569A9"/>
	<stop  offset="1" style="stop-color:#08ACDA"/>
</linearGradient>
<polygon class="st3" points="124.7,430.5 120.1,435.1 115.5,430.5 "/>
<linearGradient id="SVGID_4_" gradientUnits="userSpaceOnUse" x1="326.6" y1="662.5" x2="341" y2="662.5" gradientTransform="matrix(1 0 0 1 0 -418)">
	<stop  offset="2.234363e-03" style="stop-color:#1569A9"/>
	<stop  offset="1" style="stop-color:#08ACDA"/>
</linearGradient>
<polygon class="st4" points="341,240.9 333.8,248.1 326.6,240.9 "/>
<linearGradient id="SVGID_5_" gradientUnits="userSpaceOnUse" x1="70.9" y1="865.25" x2="94" y2="865.25" gradientTransform="matrix(1 0 0 1 0 -418)">
	<stop  offset="2.234363e-03" style="stop-color:#1569A9"/>
	<stop  offset="1" style="stop-color:#08ACDA"/>
</linearGradient>
<polygon class="st5" points="94,441.5 82.4,453 70.9,441.5 "/>
<linearGradient id="SVGID_6_" gradientUnits="userSpaceOnUse" x1="346.8" y1="689.85" x2="369.7" y2="689.85" gradientTransform="matrix(1 0 0 1 0 -418)">
	<stop  offset="2.234363e-03" style="stop-color:#1569A9"/>
	<stop  offset="1" style="stop-color:#08ACDA"/>
</linearGradient>
<polygon class="st6" points="369.7,266.1 358.2,277.6 346.8,266.1 "/>
<linearGradient id="SVGID_7_" gradientUnits="userSpaceOnUse" x1="597.8" y1="818.85" x2="603.2" y2="818.85" gradientTransform="matrix(1 0 0 1 0 -418)">
	<stop  offset="0" style="stop-color:#545454"/>
	<stop  offset="1" style="stop-color:#000000"/>
</linearGradient>
<polygon class="st7" points="603.2,399.5 600.5,402.2 597.8,399.5 "/>
<linearGradient id="SVGID_8_" gradientUnits="userSpaceOnUse" x1="562.5" y1="809.2" x2="570.8" y2="809.2" gradientTransform="matrix(1 0 0 1 0 -418)">
	<stop  offset="2.234363e-03" style="stop-color:#1569A9"/>
	<stop  offset="1" style="stop-color:#08ACDA"/>
</linearGradient>
<polygon class="st8" points="570.8,389.1 566.7,393.3 562.5,389.1 "/>
<linearGradient id="SVGID_9_" gradientUnits="userSpaceOnUse" x1="499.5" y1="865.25" x2="512.7" y2="865.25" gradientTransform="matrix(1 0 0 1 0 -418)">
	<stop  offset="2.234363e-03" style="stop-color:#1569A9"/>
	<stop  offset="1" style="stop-color:#08ACDA"/>
</linearGradient>
<polygon class="st9" points="512.7,444 506.1,450.5 499.5,444 "/>
<linearGradient id="SVGID_10_" gradientUnits="userSpaceOnUse" x1="280.5" y1="449.3" x2="293.7" y2="449.3" gradientTransform="matrix(1 0 0 1 0 -418)">
	<stop  offset="2.234363e-03" style="stop-color:#1569A9"/>
	<stop  offset="1" style="stop-color:#08ACDA"/>
</linearGradient>
<polygon class="st10" points="293.7,28 287.1,34.6 280.5,28 "/>
<linearGradient id="SVGID_11_" gradientUnits="userSpaceOnUse" x1="547.5" y1="544.95" x2="562.5" y2="544.95" gradientTransform="matrix(1 0 0 1 0 -418)">
	<stop  offset="2.234363e-03" style="stop-color:#1569A9"/>
	<stop  offset="1" style="stop-color:#08ACDA"/>
</linearGradient>
<polygon class="st11" points="562.5,123.2 555,130.7 547.5,123.2 "/>
<linearGradient id="SVGID_12_" gradientUnits="userSpaceOnUse" x1="302.6" y1="519.55" x2="323.3" y2="519.55" gradientTransform="matrix(1 0 0 1 0 -418)">
	<stop  offset="2.234363e-03" style="stop-color:#1569A9"/>
	<stop  offset="1" style="stop-color:#08ACDA"/>
</linearGradient>
<polygon class="st12" points="323.3,96.4 313,106.7 302.6,96.4 "/>
<linearGradient id="SVGID_13_" gradientUnits="userSpaceOnUse" x1="91.2" y1="500.65" x2="120.6" y2="500.65" gradientTransform="matrix(1 0 0 1 0 -418)">
	<stop  offset="2.234363e-03" style="stop-color:#1569A9"/>
	<stop  offset="1" style="stop-color:#08ACDA"/>
</linearGradient>
<polygon class="st13" points="120.6,75.3 105.9,90 91.2,75.3 "/>
<linearGradient id="SVGID_14_" gradientUnits="userSpaceOnUse" x1="406.7" y1="808.55" x2="410.4" y2="808.55" gradientTransform="matrix(1 0 0 1 0 -418)">
	<stop  offset="0" style="stop-color:#545454"/>
	<stop  offset="1" style="stop-color:#000000"/>
</linearGradient>
<polygon class="st14" points="406.7,388.4 410.4,388.9 409.8,392.7 "/>
<linearGradient id="SVGID_15_" gradientUnits="userSpaceOnUse" x1="410.4" y1="787.15" x2="416.6" y2="787.15" gradientTransform="matrix(1 0 0 1 0 -418)">
	<stop  offset="0" style="stop-color:#545454"/>
	<stop  offset="1" style="stop-color:#000000"/>
</linearGradient>
<polygon class="st15" points="412.9,349.4 416.6,350 410.4,388.9 "/>
<linearGradient id="SVGID_16_" gradientUnits="userSpaceOnUse" x1="406.7" y1="787.15" x2="412.9" y2="787.15" gradientTransform="matrix(1 0 0 1 0 -418)">
	<stop  offset="0" style="stop-color:#545454"/>
	<stop  offset="1" style="stop-color:#000000"/>
</linearGradient>
<polygon class="st16" points="410.4,388.9 406.7,388.4 412.9,349.4 "/>
<linearGradient id="SVGID_17_" gradientUnits="userSpaceOnUse" x1="500.6" y1="808.4" x2="503.6" y2="808.4" gradientTransform="matrix(1 0 0 1 0 -418)">
	<stop  offset="0" style="stop-color:#545454"/>
	<stop  offset="1" style="stop-color:#000000"/>
</linearGradient>
<polygon class="st17" points="503.6,388.7 500.6,389.1 501.1,392.1 "/>
<linearGradient id="SVGID_18_" gradientUnits="userSpaceOnUse" x1="495.3" y1="789.55" x2="500.6" y2="789.55" gradientTransform="matrix(1 0 0 1 0 -418)">
	<stop  offset="0" style="stop-color:#545454"/>
	<stop  offset="1" style="stop-color:#000000"/>
</linearGradient>
<polygon class="st18" points="498.2,354 495.3,354.4 500.6,389.1 "/>
<linearGradient id="SVGID_19_" gradientUnits="userSpaceOnUse" x1="498.2" y1="789.55" x2="503.6" y2="789.55" gradientTransform="matrix(1 0 0 1 0 -418)">
	<stop  offset="0" style="stop-color:#545454"/>
	<stop  offset="1" style="stop-color:#000000"/>
</linearGradient>
<polygon class="st19" points="500.6,389.1 503.6,388.7 498.2,354 "/>
<linearGradient id="SVGID_20_" gradientUnits="userSpaceOnUse" x1="476.7" y1="739.15" x2="487" y2="739.15" gradientTransform="matrix(1 0 0 1 0 -418)">
	<stop  offset="0" style="stop-color:#545454"/>
	<stop  offset="1" style="stop-color:#000000"/>
</linearGradient>
<polygon class="st20" points="487,330.1 476.7,322.5 484.3,312.2 "/>
<linearGradient id="SVGID_21_" gradientUnits="userSpaceOnUse" x1="495.8" y1="738.15" x2="506.1" y2="738.15" gradientTransform="matrix(1 0 0 1 0 -418)">
	<stop  offset="0" style="stop-color:#545454"/>
	<stop  offset="1" style="stop-color:#000000"/>
</linearGradient>
<polygon class="st21" points="495.8,311.2 506.1,318.8 498.5,329.1 "/>
<linearGradient id="SVGID_22_" gradientUnits="userSpaceOnUse" x1="433" y1="608.25" x2="446" y2="608.25" gradientTransform="matrix(1 0 0 1 0 -418)">
	<stop  offset="0" style="stop-color:#545454"/>
	<stop  offset="1" style="stop-color:#000000"/>
</linearGradient>
<polygon class="st22" points="433,194.2 444.2,195.9 446,184.6 "/>
<linearGradient id="SVGID_23_" gradientUnits="userSpaceOnUse" x1="406.9" y1="786.8" x2="418.2" y2="786.8" gradientTransform="matrix(1 0 0 1 0 -418)">
	<stop  offset="0" style="stop-color:#545454"/>
	<stop  offset="1" style="stop-color:#000000"/>
</linearGradient>
<polygon class="st23" points="406.9,362.3 418.2,364 416.4,375.3 "/>
<linearGradient id="SVGID_24_" gradientUnits="userSpaceOnUse" x1="418.2" y1="697.1" x2="444.2" y2="697.1" gradientTransform="matrix(1 0 0 1 0 -418)">
	<stop  offset="0" style="stop-color:#545454"/>
	<stop  offset="1" style="stop-color:#000000"/>
</linearGradient>
<polygon class="st24" points="433,194.2 444.2,195.9 418.2,364 "/>
<linearGradient id="SVGID_25_" gradientUnits="userSpaceOnUse" x1="406.9" y1="697.1" x2="433" y2="697.1" gradientTransform="matrix(1 0 0 1 0 -418)">
	<stop  offset="0" style="stop-color:#545454"/>
	<stop  offset="1" style="stop-color:#000000"/>
</linearGradient>
<polygon class="st25" points="418.2,364 406.9,362.3 433,194.2 "/>
<linearGradient id="SVGID_26_" gradientUnits="userSpaceOnUse" x1="464.5" y1="608.25" x2="477.6" y2="608.25" gradientTransform="matrix(1 0 0 1 0 -418)">
	<stop  offset="0" style="stop-color:#545454"/>
	<stop  offset="1" style="stop-color:#000000"/>
</linearGradient>
<polygon class="st26" points="477.6,194.2 466.3,195.9 464.5,184.6 "/>
<linearGradient id="SVGID_27_" gradientUnits="userSpaceOnUse" x1="492.3" y1="786.8" x2="503.6" y2="786.8" gradientTransform="matrix(1 0 0 1 0 -418)">
	<stop  offset="0" style="stop-color:#545454"/>
	<stop  offset="1" style="stop-color:#000000"/>
</linearGradient>
<polygon class="st27" points="503.6,362.3 492.3,364 494.1,375.3 "/>
<linearGradient id="SVGID_28_" gradientUnits="userSpaceOnUse" x1="466.3" y1="697.1" x2="492.3" y2="697.1" gradientTransform="matrix(1 0 0 1 0 -418)">
	<stop  offset="0" style="stop-color:#545454"/>
	<stop  offset="1" style="stop-color:#000000"/>
</linearGradient>
<polygon class="st28" points="477.5,194.2 466.3,195.9 492.3,364 "/>
<linearGradient id="SVGID_29_" gradientUnits="userSpaceOnUse" x1="477.5" y1="697.1" x2="503.6" y2="697.1" gradientTransform="matrix(1 0 0 1 0 -418)">
	<stop  offset="0" style="stop-color:#545454"/>
	<stop  offset="1" style="stop-color:#000000"/>
</linearGradient>
<polygon class="st29" points="492.3,364 503.6,362.3 477.5,194.2 "/>
<linearGradient id="SVGID_30_" gradientUnits="userSpaceOnUse" x1="450.1" y1="539.55" x2="463.4" y2="539.55" gradientTransform="matrix(1 0 0 1 0 -418)">
	<stop  offset="0" style="stop-color:#545454"/>
	<stop  offset="1" style="stop-color:#000000"/>
</linearGradient>
<polygon class="st30" points="463.4,114.9 463.4,128.2 450.1,128.2 "/>
<linearGradient id="SVGID_31_" gradientUnits="userSpaceOnUse" x1="446.8426" y1="531.4369" x2="463.0554" y2="544.7135" gradientTransform="matrix(1 0 0 1 0 -418)">
	<stop  offset="0" style="stop-color:#545454"/>
	<stop  offset="1" style="stop-color:#000000"/>
</linearGradient>
<polygon class="st31" points="450.1,128.2 450.1,114.9 463.4,114.9 "/>
<linearGradient id="SVGID_32_" gradientUnits="userSpaceOnUse" x1="454.5" y1="548.45" x2="459" y2="548.45" gradientTransform="matrix(1 0 0 1 0 -418)">
	<stop  offset="0" style="stop-color:#545454"/>
	<stop  offset="1" style="stop-color:#000000"/>
</linearGradient>
<polygon class="st32" points="459,128.2 459,132.7 454.5,132.7 "/>
<linearGradient id="SVGID_33_" gradientUnits="userSpaceOnUse" x1="449.8031" y1="542.8518" x2="461.4201" y2="552.2135" gradientTransform="matrix(1 0 0 1 0 -418)">
	<stop  offset="0" style="stop-color:#545454"/>
	<stop  offset="1" style="stop-color:#000000"/>
</linearGradient>
<polygon class="st33" points="454.5,132.7 454.5,128.2 459,128.2 "/>
<linearGradient id="SVGID_34_" gradientUnits="userSpaceOnUse" x1="450.1" y1="526.25" x2="463.4" y2="526.25" gradientTransform="matrix(1 0 0 1 0 -418)">
	<stop  offset="0" style="stop-color:#545454"/>
	<stop  offset="1" style="stop-color:#000000"/>
</linearGradient>
<polygon class="st34" points="463.4,101.6 463.4,114.9 450.1,114.9 "/>
<linearGradient id="SVGID_35_" gradientUnits="userSpaceOnUse" x1="449.5283" y1="516.6862" x2="458.9751" y2="529.1968" gradientTransform="matrix(1 0 0 1 0 -418)">
	<stop  offset="0" style="stop-color:#545454"/>
	<stop  offset="1" style="stop-color:#000000"/>
</linearGradient>
<polygon class="st35" points="450.1,114.9 450.1,101.6 463.4,101.6 "/>
<linearGradient id="SVGID_36_" gradientUnits="userSpaceOnUse" x1="452.8" y1="608.3" x2="461.2" y2="608.3" gradientTransform="matrix(1 0 0 1 0 -418)">
	<stop  offset="0" style="stop-color:#545454"/>
	<stop  offset="1" style="stop-color:#000000"/>
</linearGradient>
<polygon class="st36" points="461.2,186.1 461.2,194.5 452.8,194.5 "/>
<linearGradient id="SVGID_37_" gradientUnits="userSpaceOnUse" x1="454.3489" y1="602.9174" x2="459.9659" y2="614.3217" gradientTransform="matrix(1 0 0 1 0 -418)">
	<stop  offset="0" style="stop-color:#545454"/>
	<stop  offset="1" style="stop-color:#000000"/>
</linearGradient>
<polygon class="st37" points="452.8,194.5 452.8,186.1 461.2,186.1 "/>
<linearGradient id="SVGID_38_" gradientUnits="userSpaceOnUse" x1="443.4925" y1="561.2375" x2="434.1734" y2="556.1737" gradientTransform="matrix(1 0 0 1 0 -418)">
	<stop  offset="0" style="stop-color:#D35400"/>
	<stop  offset="1" style="stop-color:#E67E22"/>
</linearGradient>
<polygon class="st38" points="439.4,134.3 439.4,143 430.7,143 "/>
<linearGradient id="SVGID_39_" gradientUnits="userSpaceOnUse" x1="430.7" y1="565.35" x2="439.4" y2="565.35" gradientTransform="matrix(1 0 0 1 0 -418)">
	<stop  offset="0" style="stop-color:#D35400"/>
	<stop  offset="1" style="stop-color:#E67E22"/>
</linearGradient>
<polygon class="st39" points="439.4,143 439.4,151.7 430.7,151.7 "/>
<linearGradient id="SVGID_40_" gradientUnits="userSpaceOnUse" x1="429.1189" y1="555.8934" x2="438.2465" y2="570.4465" gradientTransform="matrix(1 0 0 1 0 -418)">
	<stop  offset="0" style="stop-color:#D35400"/>
	<stop  offset="1" style="stop-color:#E67E22"/>
</linearGradient>
<polygon class="st40" points="430.7,151.7 430.7,143 439.4,143 "/>
<linearGradient id="SVGID_41_" gradientUnits="userSpaceOnUse" x1="430.7" y1="574" x2="439.4" y2="574" gradientTransform="matrix(1 0 0 1 0 -418)">
	<stop  offset="0" style="stop-color:#D35400"/>
	<stop  offset="1" style="stop-color:#E67E22"/>
</linearGradient>
<polygon class="st41" points="439.4,151.7 439.4,160.3 430.7,160.3 "/>
<linearGradient id="SVGID_42_" gradientUnits="userSpaceOnUse" x1="430.3715" y1="566.8329" x2="439.3715" y2="580.6201" gradientTransform="matrix(1 0 0 1 0 -418)">
	<stop  offset="0" style="stop-color:#D35400"/>
	<stop  offset="1" style="stop-color:#E67E22"/>
</linearGradient>
<polygon class="st42" points="430.7,160.3 430.7,151.7 439.4,151.7 "/>
<linearGradient id="SVGID_43_" gradientUnits="userSpaceOnUse" x1="439.4" y1="565.35" x2="448.1" y2="565.35" gradientTransform="matrix(1 0 0 1 0 -418)">
	<stop  offset="0" style="stop-color:#D35400"/>
	<stop  offset="1" style="stop-color:#E67E22"/>
</linearGradient>
<polygon class="st43" points="448.1,143 439.4,143 439.4,151.7 "/>
<linearGradient id="SVGID_44_" gradientUnits="userSpaceOnUse" x1="439.4" y1="556.7" x2="448.1" y2="556.7" gradientTransform="matrix(1 0 0 1 0 -418)">
	<stop  offset="0" style="stop-color:#D35400"/>
	<stop  offset="1" style="stop-color:#E67E22"/>
</linearGradient>
<polygon class="st44" points="448.1,143 448.1,134.4 439.4,134.4 "/>
<linearGradient id="SVGID_45_" gradientUnits="userSpaceOnUse" x1="435.8234" y1="551.5253" x2="441.2702" y2="558.0358" gradientTransform="matrix(1 0 0 1 0 -418)">
	<stop  offset="0" style="stop-color:#D35400"/>
	<stop  offset="1" style="stop-color:#E67E22"/>
</linearGradient>
<polygon class="st45" points="439.4,134.4 439.4,143 448.1,143 "/>
<linearGradient id="SVGID_46_" gradientUnits="userSpaceOnUse" x1="448.1" y1="556.7" x2="456.8" y2="556.7" gradientTransform="matrix(1 0 0 1 0 -418)">
	<stop  offset="0" style="stop-color:#D35400"/>
	<stop  offset="1" style="stop-color:#E67E22"/>
</linearGradient>
<polygon class="st46" points="456.8,143 456.8,134.4 448.1,134.4 "/>
<linearGradient id="SVGID_47_" gradientUnits="userSpaceOnUse" x1="448.896" y1="564.1041" x2="453.4918" y2="554.5297" gradientTransform="matrix(1 0 0 1 0 -418)">
	<stop  offset="0" style="stop-color:#D35400"/>
	<stop  offset="1" style="stop-color:#E67E22"/>
</linearGradient>
<polygon class="st47" points="448.1,134.4 448.1,143 456.8,143 "/>
<linearGradient id="SVGID_48_" gradientUnits="userSpaceOnUse" x1="430.7" y1="600" x2="439.4" y2="600" gradientTransform="matrix(1 0 0 1 0 -418)">
	<stop  offset="0" style="stop-color:#D35400"/>
	<stop  offset="1" style="stop-color:#E67E22"/>
</linearGradient>
<polygon class="st48" points="430.7,177.7 439.4,177.7 439.4,186.3 "/>
<linearGradient id="SVGID_49_" gradientUnits="userSpaceOnUse" x1="439.4" y1="600" x2="448.1" y2="600" gradientTransform="matrix(1 0 0 1 0 -418)">
	<stop  offset="0" style="stop-color:#D35400"/>
	<stop  offset="1" style="stop-color:#E67E22"/>
</linearGradient>
<polygon class="st49" points="439.4,177.7 448.1,177.7 448.1,186.3 "/>
<linearGradient id="SVGID_50_" gradientUnits="userSpaceOnUse" x1="443.8" y1="605.8385" x2="443.481" y2="596.03" gradientTransform="matrix(1 0 0 1 0 -418)">
	<stop  offset="0" style="stop-color:#D35400"/>
	<stop  offset="1" style="stop-color:#E67E22"/>
</linearGradient>
<polygon class="st50" points="448.1,186.3 439.4,186.3 439.4,177.7 "/>
<linearGradient id="SVGID_51_" gradientUnits="userSpaceOnUse" x1="458.1545" y1="592.0179" x2="448.2609" y2="605.7413" gradientTransform="matrix(1 0 0 1 0 -418)">
	<stop  offset="0" style="stop-color:#D35400"/>
	<stop  offset="1" style="stop-color:#E67E22"/>
</linearGradient>
<polygon class="st51" points="448.1,177.7 456.7,177.7 456.7,186.3 "/>
<linearGradient id="SVGID_52_" gradientUnits="userSpaceOnUse" x1="446.2745" y1="606.8787" x2="454.0617" y2="598.134" gradientTransform="matrix(1 0 0 1 0 -418)">
	<stop  offset="0" style="stop-color:#D35400"/>
	<stop  offset="1" style="stop-color:#E67E22"/>
</linearGradient>
<polygon class="st52" points="456.7,186.3 448.1,186.3 448.1,177.7 "/>
<linearGradient id="SVGID_53_" gradientUnits="userSpaceOnUse" x1="448.166" y1="588.3362" x2="437.8469" y2="595.3787" gradientTransform="matrix(1 0 0 1 0 -418)">
	<stop  offset="0" style="stop-color:#D35400"/>
	<stop  offset="1" style="stop-color:#E67E22"/>
</linearGradient>
<polygon class="st53" points="439.5,169 439.5,177.7 448,177.7 "/>
<linearGradient id="SVGID_54_" gradientUnits="userSpaceOnUse" x1="427.2737" y1="579.2327" x2="438.3376" y2="596.254" gradientTransform="matrix(1 0 0 1 0 -418)">
	<stop  offset="0" style="stop-color:#D35400"/>
	<stop  offset="1" style="stop-color:#E67E22"/>
</linearGradient>
<polygon class="st54" points="439.5,169 430.8,169 430.8,177.7 "/>
<linearGradient id="SVGID_55_" gradientUnits="userSpaceOnUse" x1="436.3381" y1="583.019" x2="434.253" y2="605.2743" gradientTransform="matrix(1 0 0 1 0 -418)">
	<stop  offset="0" style="stop-color:#D35400"/>
	<stop  offset="1" style="stop-color:#E67E22"/>
</linearGradient>
<polygon class="st55" points="430.8,177.7 439.5,177.7 439.5,169 "/>
<linearGradient id="SVGID_56_" gradientUnits="userSpaceOnUse" x1="433.8605" y1="572.5641" x2="435.6477" y2="586.5429" gradientTransform="matrix(1 0 0 1 0 -418)">
	<stop  offset="0" style="stop-color:#D35400"/>
	<stop  offset="1" style="stop-color:#E67E22"/>
</linearGradient>
<polygon class="st56" points="439.5,160.3 430.8,160.3 430.8,169 "/>
<linearGradient id="SVGID_57_" gradientUnits="userSpaceOnUse" x1="430.8" y1="582.65" x2="439.5" y2="582.65" gradientTransform="matrix(1 0 0 1 0 -418)">
	<stop  offset="0" style="stop-color:#D35400"/>
	<stop  offset="1" style="stop-color:#E67E22"/>
</linearGradient>
<polygon class="st57" points="430.8,169 439.5,169 439.5,160.3 "/>
<linearGradient id="SVGID_58_" gradientUnits="userSpaceOnUse" x1="474.1" y1="600" x2="482.8" y2="600" gradientTransform="matrix(1 0 0 1 0 -418)">
	<stop  offset="0" style="stop-color:#D35400"/>
	<stop  offset="1" style="stop-color:#E67E22"/>
</linearGradient>
<polygon class="st58" points="474.1,186.3 474.1,177.7 482.8,177.7 "/>
<linearGradient id="SVGID_59_" gradientUnits="userSpaceOnUse" x1="476.5022" y1="585.8267" x2="479.481" y2="594.2735" gradientTransform="matrix(1 0 0 1 0 -418)">
	<stop  offset="0" style="stop-color:#D35400"/>
	<stop  offset="1" style="stop-color:#E67E22"/>
</linearGradient>
<polygon class="st59" points="474.1,177.7 474.1,169 482.8,169 "/>
<linearGradient id="SVGID_60_" gradientUnits="userSpaceOnUse" x1="492.8339" y1="609.7715" x2="473.4297" y2="584.9204" gradientTransform="matrix(1 0 0 1 0 -418)">
	<stop  offset="0" style="stop-color:#D35400"/>
	<stop  offset="1" style="stop-color:#E67E22"/>
</linearGradient>
<polygon class="st60" points="482.8,169 482.8,177.7 474.1,177.7 "/>
<linearGradient id="SVGID_61_" gradientUnits="userSpaceOnUse" x1="468.1906" y1="575.0958" x2="485.297" y2="587.6916" gradientTransform="matrix(1 0 0 1 0 -418)">
	<stop  offset="0" style="stop-color:#D35400"/>
	<stop  offset="1" style="stop-color:#E67E22"/>
</linearGradient>
<polygon class="st61" points="474.1,169 474.1,160.3 482.8,160.3 "/>
<linearGradient id="SVGID_62_" gradientUnits="userSpaceOnUse" x1="474.0086" y1="576.1002" x2="484.9447" y2="592.2278" gradientTransform="matrix(1 0 0 1 0 -418)">
	<stop  offset="0" style="stop-color:#D35400"/>
	<stop  offset="1" style="stop-color:#E67E22"/>
</linearGradient>
<polygon class="st62" points="482.8,160.3 482.8,169 474.1,169 "/>
<linearGradient id="SVGID_63_" gradientUnits="userSpaceOnUse" x1="488.0801" y1="601.797" x2="451.1865" y2="580.6693" gradientTransform="matrix(1 0 0 1 0 -418)">
	<stop  offset="0" style="stop-color:#D35400"/>
	<stop  offset="1" style="stop-color:#E67E22"/>
</linearGradient>
<polygon class="st63" points="465.4,177.6 474.1,177.6 474.1,169 "/>
<linearGradient id="SVGID_64_" gradientUnits="userSpaceOnUse" x1="465.4" y1="599.95" x2="474.1" y2="599.95" gradientTransform="matrix(1 0 0 1 0 -418)">
	<stop  offset="0" style="stop-color:#D35400"/>
	<stop  offset="1" style="stop-color:#E67E22"/>
</linearGradient>
<polygon class="st64" points="465.4,177.6 465.4,186.3 474.1,186.3 "/>
<linearGradient id="SVGID_65_" gradientUnits="userSpaceOnUse" x1="469.75" y1="607.1489" x2="469.75" y2="592.8146" gradientTransform="matrix(1 0 0 1 0 -418)">
	<stop  offset="0" style="stop-color:#D35400"/>
	<stop  offset="1" style="stop-color:#E67E22"/>
</linearGradient>
<polygon class="st65" points="474.1,186.3 474.1,177.6 465.4,177.6 "/>
<linearGradient id="SVGID_66_" gradientUnits="userSpaceOnUse" x1="456.8" y1="599.95" x2="465.4" y2="599.95" gradientTransform="matrix(1 0 0 1 0 -418)">
	<stop  offset="0" style="stop-color:#D35400"/>
	<stop  offset="1" style="stop-color:#E67E22"/>
</linearGradient>
<polygon class="st66" points="456.8,177.6 456.8,186.3 465.4,186.3 "/>
<linearGradient id="SVGID_67_" gradientUnits="userSpaceOnUse" x1="465.1927" y1="590.2103" x2="460.1502" y2="602.2103" gradientTransform="matrix(1 0 0 1 0 -418)">
	<stop  offset="0" style="stop-color:#D35400"/>
	<stop  offset="1" style="stop-color:#E67E22"/>
</linearGradient>
<polygon class="st67" points="465.4,186.3 465.4,177.6 456.8,177.6 "/>
<linearGradient id="SVGID_68_" gradientUnits="userSpaceOnUse" x1="474.1" y1="556.65" x2="482.8" y2="556.65" gradientTransform="matrix(1 0 0 1 0 -418)">
	<stop  offset="0" style="stop-color:#D35400"/>
	<stop  offset="1" style="stop-color:#E67E22"/>
</linearGradient>
<polygon class="st68" points="482.8,143 474.1,143 474.1,134.3 "/>
<linearGradient id="SVGID_69_" gradientUnits="userSpaceOnUse" x1="462.5443" y1="561.4762" x2="471.6932" y2="555.3485" gradientTransform="matrix(1 0 0 1 0 -418)">
	<stop  offset="0" style="stop-color:#D35400"/>
	<stop  offset="1" style="stop-color:#E67E22"/>
</linearGradient>
<polygon class="st69" points="474.1,143 465.4,143 465.4,134.3 "/>
<linearGradient id="SVGID_70_" gradientUnits="userSpaceOnUse" x1="465.4" y1="556.65" x2="474.1" y2="556.65" gradientTransform="matrix(1 0 0 1 0 -418)">
	<stop  offset="0" style="stop-color:#D35400"/>
	<stop  offset="1" style="stop-color:#E67E22"/>
</linearGradient>
<polygon class="st70" points="465.4,134.3 474.1,134.3 474.1,143 "/>
<linearGradient id="SVGID_71_" gradientUnits="userSpaceOnUse" x1="454.0425" y1="559.1674" x2="460.7233" y2="556.7844" gradientTransform="matrix(1 0 0 1 0 -418)">
	<stop  offset="0" style="stop-color:#D35400"/>
	<stop  offset="1" style="stop-color:#E67E22"/>
</linearGradient>
<polygon class="st71" points="465.4,143 456.8,143 456.8,134.3 "/>
<linearGradient id="SVGID_72_" gradientUnits="userSpaceOnUse" x1="456.8" y1="556.65" x2="465.4" y2="556.65" gradientTransform="matrix(1 0 0 1 0 -418)">
	<stop  offset="0" style="stop-color:#D35400"/>
	<stop  offset="1" style="stop-color:#E67E22"/>
</linearGradient>
<polygon class="st72" points="456.8,134.3 465.4,134.3 465.4,143 "/>
<linearGradient id="SVGID_73_" gradientUnits="userSpaceOnUse" x1="478.8438" y1="557.5957" x2="461.4821" y2="572.3191" gradientTransform="matrix(1 0 0 1 0 -418)">
	<stop  offset="0" style="stop-color:#D35400"/>
	<stop  offset="1" style="stop-color:#E67E22"/>
</linearGradient>
<polygon class="st73" points="474,151.7 474,143 465.4,143 "/>
<linearGradient id="SVGID_74_" gradientUnits="userSpaceOnUse" x1="485.8424" y1="569.7773" x2="472.736" y2="562.0327" gradientTransform="matrix(1 0 0 1 0 -418)">
	<stop  offset="0" style="stop-color:#D35400"/>
	<stop  offset="1" style="stop-color:#E67E22"/>
</linearGradient>
<polygon class="st74" points="474,151.7 482.7,151.7 482.7,143 "/>
<linearGradient id="SVGID_75_" gradientUnits="userSpaceOnUse" x1="478.7879" y1="554.6832" x2="478.192" y2="563.2789" gradientTransform="matrix(1 0 0 1 0 -418)">
	<stop  offset="0" style="stop-color:#D35400"/>
	<stop  offset="1" style="stop-color:#E67E22"/>
</linearGradient>
<polygon class="st75" points="482.7,143 474,143 474,151.7 "/>
<linearGradient id="SVGID_76_" gradientUnits="userSpaceOnUse" x1="488.4975" y1="578.5184" x2="462.838" y2="567.0929" gradientTransform="matrix(1 0 0 1 0 -418)">
	<stop  offset="0" style="stop-color:#D35400"/>
	<stop  offset="1" style="stop-color:#E67E22"/>
</linearGradient>
<polygon class="st76" points="474,160.3 482.7,160.3 482.7,151.7 "/>
<linearGradient id="SVGID_77_" gradientUnits="userSpaceOnUse" x1="474" y1="574" x2="482.7" y2="574" gradientTransform="matrix(1 0 0 1 0 -418)">
	<stop  offset="0" style="stop-color:#D35400"/>
	<stop  offset="1" style="stop-color:#E67E22"/>
</linearGradient>
<polygon class="st77" points="482.7,151.7 474,151.7 474,160.3 "/>
<linearGradient id="SVGID_78_" gradientUnits="userSpaceOnUse" x1="373.9" y1="526.3" x2="383.6" y2="526.3" gradientTransform="matrix(1 0 0 1 0 -418)">
	<stop  offset="0" style="stop-color:#D35400"/>
	<stop  offset="1" style="stop-color:#E67E22"/>
</linearGradient>
<polygon class="st78" points="383.6,110 378.2,105.6 373.9,111 "/>
<linearGradient id="SVGID_79_" gradientUnits="userSpaceOnUse" x1="373.9" y1="530.65" x2="383.6" y2="530.65" gradientTransform="matrix(1 0 0 1 0 -418)">
	<stop  offset="0" style="stop-color:#D35400"/>
	<stop  offset="1" style="stop-color:#E67E22"/>
</linearGradient>
<polygon class="st79" points="373.9,111 379.2,115.3 383.6,110 "/>
<linearGradient id="SVGID_80_" gradientUnits="userSpaceOnUse" x1="370" y1="535.15" x2="384.6" y2="535.15" gradientTransform="matrix(1 0 0 1 0 -418)">
	<stop  offset="0" style="stop-color:#D35400"/>
	<stop  offset="1" style="stop-color:#E67E22"/>
</linearGradient>
<polygon class="st80" points="384.6,119.7 376.6,113.1 370,121.2 "/>
<linearGradient id="SVGID_81_" gradientUnits="userSpaceOnUse" x1="377.8011" y1="545.4263" x2="377.2479" y2="537.7242" gradientTransform="matrix(1 0 0 1 0 -418)">
	<stop  offset="0" style="stop-color:#D35400"/>
	<stop  offset="1" style="stop-color:#E67E22"/>
</linearGradient>
<polygon class="st81" points="370,121.2 378,127.8 384.6,119.7 "/>
<linearGradient id="SVGID_82_" gradientUnits="userSpaceOnUse" x1="361.9" y1="528.6" x2="376.6" y2="528.6" gradientTransform="matrix(1 0 0 1 0 -418)">
	<stop  offset="0" style="stop-color:#D35400"/>
	<stop  offset="1" style="stop-color:#E67E22"/>
</linearGradient>
<polygon class="st82" points="376.6,113.1 368.5,106.6 361.9,114.6 "/>
<linearGradient id="SVGID_83_" gradientUnits="userSpaceOnUse" x1="361.9" y1="535.15" x2="376.6" y2="535.15" gradientTransform="matrix(1 0 0 1 0 -418)">
	<stop  offset="0" style="stop-color:#D35400"/>
	<stop  offset="1" style="stop-color:#E67E22"/>
</linearGradient>
<polygon class="st83" points="361.9,114.6 370,121.2 376.6,113.1 "/>
<linearGradient id="SVGID_84_" gradientUnits="userSpaceOnUse" x1="368.5" y1="526.3" x2="378.2" y2="526.3" gradientTransform="matrix(1 0 0 1 0 -418)">
	<stop  offset="0" style="stop-color:#D35400"/>
	<stop  offset="1" style="stop-color:#E67E22"/>
</linearGradient>
<polygon class="st84" points="368.5,106.6 373.9,111 378.2,105.6 "/>
<g>
	<g>
		
			<linearGradient id="SVGID_85_" gradientUnits="userSpaceOnUse" x1="243.8622" y1="535.0283" x2="184.8042" y2="598.104" gradientTransform="matrix(1 0 0 1 0 -418)">
			<stop  offset="2.234363e-03" style="stop-color:#1569A9"/>
			<stop  offset="1" style="stop-color:#08ACDA"/>
		</linearGradient>
		<polygon class="st85" points="203.4,95.9 203.4,220.4 203.4,220.4 265.7,158.1 		"/>
		
			<linearGradient id="SVGID_86_" gradientUnits="userSpaceOnUse" x1="146.1678" y1="512.5699" x2="205.226" y2="586.0914" gradientTransform="matrix(1 0 0 1 0 -418)">
			<stop  offset="2.234363e-03" style="stop-color:#1569A9"/>
			<stop  offset="1" style="stop-color:#08ACDA"/>
		</linearGradient>
		<polygon class="st86" points="203.4,95.9 141.1,158.1 203.4,220.4 		"/>
		
			<linearGradient id="SVGID_87_" gradientUnits="userSpaceOnUse" x1="110.5669" y1="668.1464" x2="51.5087" y2="731.2221" gradientTransform="matrix(1 0 0 1 0 -418)">
			<stop  offset="2.234363e-03" style="stop-color:#1569A9"/>
			<stop  offset="1" style="stop-color:#08ACDA"/>
		</linearGradient>
		<polygon class="st87" points="70.1,229 70.1,353.4 70.1,353.5 132.3,291.2 		"/>
		
			<linearGradient id="SVGID_88_" gradientUnits="userSpaceOnUse" x1="12.9001" y1="645.6572" x2="71.9582" y2="719.1785" gradientTransform="matrix(1 0 0 1 0 -418)">
			<stop  offset="2.234363e-03" style="stop-color:#1569A9"/>
			<stop  offset="1" style="stop-color:#08ACDA"/>
		</linearGradient>
		<polygon class="st88" points="70,228.9 7.8,291.2 70.1,353.4 70.1,229 		"/>
	</g>
	<g>
		<path class="st0" d="M277,363.6h0.1H277z"/>
		<polygon class="st0" points="277,363.6 277.1,363.6 277,363.4 		"/>
		
			<linearGradient id="SVGID_89_" gradientUnits="userSpaceOnUse" x1="244.4362" y1="659.4145" x2="282.6031" y2="788.78" gradientTransform="matrix(1 0 0 1 0 -418)">
			<stop  offset="2.234363e-03" style="stop-color:#1569A9"/>
			<stop  offset="1" style="stop-color:#08ACDA"/>
		</linearGradient>
		<polygon class="st89" points="276.3,362 276.2,362 277,363.4 307.6,333 205.1,230.7 276.2,361.8 		"/>
		<polygon class="st90" points="276.2,361.8 276.2,362 276.3,362 		"/>
		
			<linearGradient id="SVGID_90_" gradientUnits="userSpaceOnUse" x1="155.0395" y1="697.9046" x2="236.596" y2="713.1714" gradientTransform="matrix(1 0 0 1 0 -418)">
			<stop  offset="2.234363e-03" style="stop-color:#1569A9"/>
			<stop  offset="1" style="stop-color:#08ACDA"/>
		</linearGradient>
		<polygon class="st91" points="205.1,230.7 204.6,230 174.5,260.1 276.2,361.8 		"/>
		
			<linearGradient id="SVGID_91_" gradientUnits="userSpaceOnUse" x1="-359.3118" y1="245.6308" x2="-321.145" y2="374.9959" gradientTransform="matrix(-1 2.433625e-03 -2.433625e-03 -1 -150.8786 628.4219)">
			<stop  offset="2.234363e-03" style="stop-color:#1569A9"/>
			<stop  offset="1" style="stop-color:#08ACDA"/>
		</linearGradient>
		<polygon class="st92" points="175.6,261.4 175.8,261.4 174.9,259.9 144.5,290.5 247.2,392.6 175.8,261.6 		"/>
		
			<linearGradient id="SVGID_92_" gradientUnits="userSpaceOnUse" x1="-448.6777" y1="284.1198" x2="-367.1215" y2="299.3864" gradientTransform="matrix(-1 2.433625e-03 -2.433625e-03 -1 -150.8786 628.4219)">
			<stop  offset="2.234363e-03" style="stop-color:#1569A9"/>
			<stop  offset="1" style="stop-color:#08ACDA"/>
		</linearGradient>
		<polygon class="st93" points="247.2,392.6 247.7,393.3 277.7,363.1 175.8,261.6 		"/>
	</g>
</g>
<linearGradient id="SVGID_93_" gradientUnits="userSpaceOnUse" x1="379.2" y1="532.85" x2="384.6" y2="532.85" gradientTransform="matrix(1 0 0 1 0 -418)">
	<stop  offset="0" style="stop-color:#D35400"/>
	<stop  offset="1" style="stop-color:#E67E22"/>
</linearGradient>
<polygon class="st94" points="384.6,119.7 379.2,115.3 383.6,110 "/>
<linearGradient id="SVGID_94_" gradientUnits="userSpaceOnUse" x1="255.8467" y1="586.9871" x2="360.5275" y2="654.3914" gradientTransform="matrix(1 0 0 1 0 -418)">
	<stop  offset="0" style="stop-color:#545454"/>
	<stop  offset="1" style="stop-color:#000000"/>
</linearGradient>
<polygon class="st95" points="244.9,274.6 253,281.2 374.9,131.6 "/>
<linearGradient id="SVGID_95_" gradientUnits="userSpaceOnUse" x1="344.1967" y1="650.8636" x2="256.8776" y2="576.3104" gradientTransform="matrix(1 0 0 1 0 -418)">
	<stop  offset="0" style="stop-color:#545454"/>
	<stop  offset="1" style="stop-color:#000000"/>
</linearGradient>
<polygon class="st96" points="244.9,274.6 236.8,268.1 358.8,118.4 "/>
<g>
	<path class="st0" d="M205.7,105.7L205.7,105.7L205.7,105.7z"/>
	<polygon class="st0" points="82.1,344.4 82.2,344.2 82.1,344.3 	"/>
	<path class="st0" d="M82.1,344.3v0.1V344.3z"/>
	<polygon class="st0" points="205.7,105.6 205.6,105.8 205.7,105.7 	"/>
	<polygon class="st0" points="205.7,221.2 205.7,221.2 205.7,221.1 	"/>
	<polygon class="st0" points="205.6,221.1 205.7,221.2 205.7,221.1 	"/>
	<path class="st0" d="M206.8,230L206.8,230L206.8,230z"/>
	
		<linearGradient id="SVGID_96_" gradientUnits="userSpaceOnUse" x1="397.8923" y1="607.1425" x2="291.3391" y2="617.6956" gradientTransform="matrix(1 0 0 1 0 -418)">
		<stop  offset="0" style="stop-color:#545454"/>
		<stop  offset="1" style="stop-color:#000000"/>
	</linearGradient>
	<polygon class="st97" points="248,271.2 374.9,131.6 366.9,125 247.8,271 	"/>
	
		<linearGradient id="SVGID_97_" gradientUnits="userSpaceOnUse" x1="315.6316" y1="538.5345" x2="308.4827" y2="604.9174" gradientTransform="matrix(1 0 0 1 0 -418)">
		<stop  offset="0" style="stop-color:#545454"/>
		<stop  offset="1" style="stop-color:#000000"/>
	</linearGradient>
	<polygon class="st98" points="366.9,125 358.8,118.4 247.7,270.8 247.8,271 	"/>
	
		<linearGradient id="SVGID_98_" gradientUnits="userSpaceOnUse" x1="238.3" y1="696.65" x2="253" y2="696.65" gradientTransform="matrix(1 0 0 1 0 -418)">
		<stop  offset="0" style="stop-color:#FFFFFF"/>
		<stop  offset="1" style="stop-color:#000000"/>
	</linearGradient>
	<polygon class="st99" points="253,281.2 244.9,274.6 238.3,282.7 	"/>
	
		<linearGradient id="SVGID_99_" gradientUnits="userSpaceOnUse" x1="233.3" y1="704.9" x2="238" y2="704.9" gradientTransform="matrix(1 0 0 1 0 -418)">
		<stop  offset="0" style="stop-color:#FFFFFF"/>
		<stop  offset="1" style="stop-color:#000000"/>
	</linearGradient>
	<polygon class="st100" points="236.5,284.9 233.3,288.9 238,288.4 237.9,287.4 	"/>
	
		<linearGradient id="SVGID_100_" gradientUnits="userSpaceOnUse" x1="236.5494" y1="703.5" x2="237.9184" y2="703.5" gradientTransform="matrix(1 0 0 1 0 -418)">
		<stop  offset="0" style="stop-color:#FFFFFF"/>
		<stop  offset="1" style="stop-color:#000000"/>
	</linearGradient>
	<polygon class="st101" points="237.9,287.4 237.6,283.6 236.5,284.9 	"/>
	
		<linearGradient id="SVGID_101_" gradientUnits="userSpaceOnUse" x1="234.8048" y1="699.35" x2="237.6" y2="699.35" gradientTransform="matrix(1 0 0 1 0 -418)">
		<stop  offset="0" style="stop-color:#FFFFFF"/>
		<stop  offset="1" style="stop-color:#000000"/>
	</linearGradient>
	<polygon class="st102" points="237.6,283.6 237.1,278.9 234.8,281.7 235.9,283.8 	"/>
	
		<linearGradient id="SVGID_102_" gradientUnits="userSpaceOnUse" x1="232.8" y1="700.9" x2="235.9413" y2="700.9" gradientTransform="matrix(1 0 0 1 0 -418)">
		<stop  offset="0" style="stop-color:#FFFFFF"/>
		<stop  offset="1" style="stop-color:#000000"/>
	</linearGradient>
	<polygon class="st103" points="235.9,283.8 234.8,281.7 232.8,284.1 	"/>
	
		<linearGradient id="SVGID_103_" gradientUnits="userSpaceOnUse" x1="232.8" y1="704.35" x2="236.5494" y2="704.35" gradientTransform="matrix(1 0 0 1 0 -418)">
		<stop  offset="0" style="stop-color:#FFFFFF"/>
		<stop  offset="1" style="stop-color:#000000"/>
	</linearGradient>
	<polygon class="st104" points="235.9,283.8 232.8,284.1 233.3,288.9 236.5,284.9 	"/>
	
		<linearGradient id="SVGID_104_" gradientUnits="userSpaceOnUse" x1="235.9413" y1="702.25" x2="237.6" y2="702.25" gradientTransform="matrix(1 0 0 1 0 -418)">
		<stop  offset="0" style="stop-color:#FFFFFF"/>
		<stop  offset="1" style="stop-color:#000000"/>
	</linearGradient>
	<polygon class="st105" points="236.5,284.9 237.6,283.6 235.9,283.8 	"/>
	
		<linearGradient id="SVGID_105_" gradientUnits="userSpaceOnUse" x1="237.6" y1="703.6" x2="242.3" y2="703.6" gradientTransform="matrix(1 0 0 1 0 -418)">
		<stop  offset="0" style="stop-color:#FFFFFF"/>
		<stop  offset="1" style="stop-color:#000000"/>
	</linearGradient>
	<polygon class="st106" points="238.3,288.1 242.3,283.1 237.6,283.6 237.9,287.4 	"/>
	
		<linearGradient id="SVGID_106_" gradientUnits="userSpaceOnUse" x1="237.9184" y1="705.9" x2="238.2692" y2="705.9" gradientTransform="matrix(1 0 0 1 0 -418)">
		<stop  offset="0" style="stop-color:#FFFFFF"/>
		<stop  offset="1" style="stop-color:#000000"/>
	</linearGradient>
	<polygon class="st107" points="238,288.4 238.3,288.1 237.9,287.4 	"/>
	<polygon class="st108" points="244.9,274.6 248,271.2 247.8,271 	"/>
	
		<linearGradient id="SVGID_107_" gradientUnits="userSpaceOnUse" x1="236.8" y1="693.4" x2="244.9" y2="693.4" gradientTransform="matrix(1 0 0 1 0 -418)">
		<stop  offset="0" style="stop-color:#FFFFFF"/>
		<stop  offset="1" style="stop-color:#000000"/>
	</linearGradient>
	<polygon class="st109" points="238.3,282.7 244.9,274.6 236.8,268.1 	"/>
	<polygon class="st108" points="247.8,271 247.7,270.8 244.9,274.6 	"/>
</g>
</svg>
