<?xml version="1.0" encoding="utf-8"?>
<!-- Generator: Adobe Illustrator 24.0.0, SVG Export Plug-In . SVG Version: 6.00 Build 0)  -->
<svg version="1.1" id="Layer_1" xmlns="http://www.w3.org/2000/svg" xmlns:xlink="http://www.w3.org/1999/xlink" x="0px" y="0px"
	 viewBox="0 0 641 481" style="enable-background:new 0 0 641 481;" xml:space="preserve">
<style type="text/css">
	.st0-design{fill:none;}
	.st1-design{fill:none;stroke:#000000;stroke-width:0.5;stroke-miterlimit:10;}
</style>
<title>design</title>
<g id="Layer_2_1_">
	<rect x="0.5" y="0.5" class="st0-design" width="640" height="480"/>
</g>
<g id="Layer_3">
	<polygon class="st1-design" points="397.2,259 392.6,263.6 387.9,259 	"/>
	<polygon class="st1-design" points="61.2,409.8 53.8,417.2 46.4,409.8 	"/>
	<polygon class="st1-design" points="124.7,430.5 120.1,435.1 115.5,430.5 	"/>
	<polygon class="st1-design" points="341,240.9 333.8,248.1 326.6,240.9 	"/>
	<polygon class="st1-design" points="94,441.5 82.4,453 70.9,441.5 	"/>
	<polygon class="st1-design" points="369.7,266.1 358.2,277.6 346.8,266.1 	"/>
	<polygon class="st1-design" points="603.2,399.5 600.5,402.2 597.8,399.5 	"/>
	<polygon class="st1-design" points="570.8,389.1 566.7,393.3 562.5,389.1 	"/>
	<polygon class="st1-design" points="512.7,444 506.1,450.5 499.5,444 	"/>
	<polygon class="st1-design" points="293.7,28 287.1,34.6 280.5,28 	"/>
	<polygon class="st1-design" points="562.5,123.2 555,130.7 547.5,123.2 	"/>
	<polygon class="st1-design" points="323.3,96.4 313,106.7 302.6,96.4 	"/>
	<polygon class="st1-design" points="120.6,75.3 105.9,90 91.2,75.3 	"/>
	<polygon class="st1-design" points="406.7,388.4 410.4,388.9 409.8,392.7 	"/>
	<polygon class="st1-design" points="412.9,349.4 416.6,350 410.4,388.9 	"/>
	<polygon class="st1-design" points="410.4,388.9 406.7,388.4 412.9,349.4 	"/>
	<polygon class="st1-design" points="503.6,388.7 500.6,389.1 501.1,392.1 	"/>
	<polygon class="st1-design" points="498.2,354 495.3,354.4 500.6,389.1 	"/>
	<polygon class="st1-design" points="500.6,389.1 503.6,388.7 498.2,354 	"/>
	<polygon class="st1-design" points="487,330.1 476.7,322.5 484.3,312.2 	"/>
	<polygon class="st1-design" points="495.8,311.2 506.1,318.8 498.5,329.1 	"/>
	<polygon class="st1-design" points="433,194.2 444.2,195.9 446,184.6 	"/>
	<polygon class="st1-design" points="406.9,362.3 418.2,364 416.4,375.3 	"/>
	<polygon class="st1-design" points="433,194.2 444.2,195.9 418.2,364 	"/>
	<polygon class="st1-design" points="418.2,364 406.9,362.3 433,194.2 	"/>
	<polygon class="st1-design" points="477.6,194.2 466.3,195.9 464.5,184.6 	"/>
	<polygon class="st1-design" points="503.6,362.3 492.3,364 494.1,375.3 	"/>
	<polygon class="st1-design" points="477.5,194.2 466.3,195.9 492.3,364 	"/>
	<polygon class="st1-design" points="492.3,364 503.6,362.3 477.5,194.2 	"/>
	<polygon class="st1-design" points="463.4,114.9 463.4,128.2 450.1,128.2 	"/>
	<polygon class="st1-design" points="450.1,128.2 450.1,114.9 463.4,114.9 	"/>
	<polygon class="st1-design" points="459,128.2 459,132.7 454.5,132.7 	"/>
	<polygon class="st1-design" points="454.5,132.7 454.5,128.2 459,128.2 	"/>
	<polygon class="st1-design" points="463.4,101.6 463.4,114.9 450.1,114.9 	"/>
	<polygon class="st1-design" points="450.1,114.9 450.1,101.6 463.4,101.6 	"/>
	<polygon class="st1-design" points="461.2,186.1 461.2,194.5 452.8,194.5 	"/>
	<polygon class="st1-design" points="452.8,194.5 452.8,186.1 461.2,186.1 	"/>
	<polygon class="st1-design" points="439.4,134.3 439.4,143 430.7,143 	"/>
	<polygon class="st1-design" points="439.4,143 439.4,151.7 430.7,151.7 	"/>
	<polygon class="st1-design" points="430.7,151.7 430.7,143 439.4,143 	"/>
	<polygon class="st1-design" points="439.4,151.7 439.4,160.3 430.7,160.3 	"/>
	<polygon class="st1-design" points="430.7,160.3 430.7,151.7 439.4,151.7 	"/>
	<polygon class="st1-design" points="448.1,143 439.4,143 439.4,151.7 	"/>
	<polygon class="st1-design" points="448.1,143 448.1,134.4 439.4,134.4 	"/>
	<polygon class="st1-design" points="439.4,134.4 439.4,143 448.1,143 	"/>
	<polygon class="st1-design" points="456.8,143 456.8,134.4 448.1,134.4 	"/>
	<polygon class="st1-design" points="448.1,134.4 448.1,143 456.8,143 	"/>
	<polygon class="st1-design" points="430.7,177.7 439.4,177.7 439.4,186.3 	"/>
	<polygon class="st1-design" points="439.4,177.7 448.1,177.7 448.1,186.3 	"/>
	<polygon class="st1-design" points="448.1,186.3 439.4,186.3 439.4,177.7 	"/>
	<polygon class="st1-design" points="448.1,177.7 456.7,177.7 456.7,186.3 	"/>
	<polygon class="st1-design" points="456.7,186.3 448.1,186.3 448.1,177.7 	"/>
	<polygon class="st1-design" points="439.5,169 439.5,177.7 448.1,177.7 	"/>
	<polygon class="st1-design" points="439.5,169 430.8,169 430.8,177.7 	"/>
	<polygon class="st1-design" points="430.8,177.7 439.5,177.7 439.5,169 	"/>
	<polygon class="st1-design" points="439.5,160.3 430.8,160.3 430.8,169 	"/>
	<polygon class="st1-design" points="430.8,169 439.5,169 439.5,160.3 	"/>
	<polygon class="st1-design" points="474.1,186.3 474.1,177.7 482.8,177.7 	"/>
	<polygon class="st1-design" points="474.1,177.7 474.1,169 482.8,169 	"/>
	<polygon class="st1-design" points="482.8,169 482.8,177.7 474.1,177.7 	"/>
	<polygon class="st1-design" points="474.1,169 474.1,160.3 482.8,160.3 	"/>
	<polygon class="st1-design" points="482.8,160.3 482.8,169 474.1,169 	"/>
	<polygon class="st1-design" points="465.4,177.6 474.1,177.6 474.1,169 	"/>
	<polygon class="st1-design" points="465.4,177.6 465.4,186.3 474.1,186.3 	"/>
	<polygon class="st1-design" points="474.1,186.3 474.1,177.6 465.4,177.6 	"/>
	<polygon class="st1-design" points="456.8,177.6 456.8,186.3 465.4,186.3 	"/>
	<polygon class="st1-design" points="465.4,186.3 465.4,177.6 456.8,177.6 	"/>
	<polygon class="st1-design" points="482.8,143 474.1,143 474.1,134.3 	"/>
	<polygon class="st1-design" points="474.1,143 465.4,143 465.4,134.3 	"/>
	<polygon class="st1-design" points="465.4,134.3 474.1,134.3 474.1,143 	"/>
	<polygon class="st1-design" points="465.4,143 456.8,143 456.8,134.3 	"/>
	<polygon class="st1-design" points="456.8,134.3 465.4,134.3 465.4,143 	"/>
	<polygon class="st1-design" points="474,151.7 474,143 465.4,143 	"/>
	<polygon class="st1-design" points="474,151.7 482.7,151.7 482.7,143 	"/>
	<polygon class="st1-design" points="482.7,143 474,143 474,151.7 	"/>
	<polygon class="st1-design" points="474,160.3 482.7,160.3 482.7,151.7 	"/>
	<polygon class="st1-design" points="482.7,151.7 474,151.7 474,160.3 	"/>
	<polygon class="st1-design" points="253,281.2 244.9,274.6 238.3,282.7 	"/>
	<polygon class="st1-design" points="233.3,288.9 238,288.4 237.6,283.6 	"/>
	<polygon class="st1-design" points="232.8,284.1 237.6,283.6 237.1,278.9 	"/>
	<polygon class="st1-design" points="237.6,283.6 232.8,284.1 233.3,288.9 	"/>
	<polygon class="st1-design" points="383.6,110 378.2,105.6 373.9,111 	"/>
	<polygon class="st1-design" points="373.9,111 379.2,115.3 383.6,110 	"/>
	<polygon class="st1-design" points="384.6,119.7 376.6,113.1 370,121.2 	"/>
	<polygon class="st1-design" points="370,121.2 378,127.8 384.6,119.7 	"/>
	<polygon class="st1-design" points="376.6,113.1 368.5,106.6 361.9,114.6 	"/>
	<polygon class="st1-design" points="361.9,114.6 370,121.2 376.6,113.1 	"/>
	<polygon class="st1-design" points="368.5,106.6 373.9,111 378.2,105.6 	"/>
	<polygon class="st1-design" points="384.6,119.7 379.2,115.3 383.6,110 	"/>
	<polygon class="st1-design" points="242.3,283.1 237.6,283.6 238,288.4 	"/>
	<polygon class="st1-design" points="374.9,131.6 366.9,125 244.9,274.6 	"/>
	<polygon class="st1-design" points="244.9,274.6 253,281.2 374.9,131.6 	"/>
	<polygon class="st1-design" points="236.8,268.1 244.9,274.6 238.3,282.7 	"/>
	<polygon class="st1-design" points="358.8,118.4 366.9,125 244.9,274.6 	"/>
	
		<rect x="184.9" y="239.1" transform="matrix(0.7069 -0.7073 0.7073 0.7069 -150.7498 249.5444)" class="st1-design" width="81.7" height="135.2"/>
	
		<rect x="41.2" y="245.7" transform="matrix(0.7069 -0.7073 0.7073 0.7069 -178.6247 142.0549)" class="st1-design" width="81.7" height="81.7"/>
	
		<rect x="164.9" y="122.6" transform="matrix(0.7069 -0.7073 0.7073 0.7069 -55.2969 193.416)" class="st1-design" width="81.7" height="81.7"/>
	<polygon class="st1-design" points="244.9,274.6 236.8,268.1 358.8,118.4 	"/>
	<line class="st1-design" x1="148" y1="163.4" x2="263.5" y2="163.4"/>
	<line class="st1-design" x1="205.7" y1="221.2" x2="243.1" y2="143"/>
	<line class="st1-design" x1="205.7" y1="105.6" x2="243.2" y2="183.8"/>
	<line class="st1-design" x1="205.7" y1="221.2" x2="168.4" y2="143"/>
	<line class="st1-design" x1="205.7" y1="105.6" x2="169.1" y2="184.6"/>
	<line class="st1-design" x1="205.7" y1="221.2" x2="205.7" y2="105.6"/>
	<line class="st1-design" x1="82.1" y1="344.4" x2="82.1" y2="228.7"/>
	<line class="st1-design" x1="24.3" y1="286.6" x2="139.9" y2="286.6"/>
	<line class="st1-design" x1="82.1" y1="344.4" x2="120.6" y2="268.1"/>
	<line class="st1-design" x1="82.1" y1="228.7" x2="44" y2="306.2"/>
	<line class="st1-design" x1="82.1" y1="344.4" x2="44.8" y2="266.1"/>
	<line class="st1-design" x1="82.1" y1="228.7" x2="121.2" y2="305.2"/>
	<line class="st1-design" x1="149.1" y1="287.8" x2="274" y2="354"/>
	<line class="st1-design" x1="206.8" y1="230" x2="274" y2="354"/>
	<line class="st1-design" x1="177.8" y1="259" x2="274" y2="354"/>
	<line class="st1-design" x1="149.1" y1="287.8" x2="224.6" y2="305.2"/>
	<line class="st1-design" x1="206.8" y1="230" x2="224.6" y2="305.2"/>
</g>
</svg>
