<?xml version="1.0" encoding="utf-8"?>
<!-- Generator: Adobe Illustrator 24.0.0, SVG Export Plug-In . SVG Version: 6.00 Build 0)  -->
<svg version="1.1" id="Layer_1" xmlns="http://www.w3.org/2000/svg" xmlns:xlink="http://www.w3.org/1999/xlink" x="0px" y="0px"
	 viewBox="0 0 641 481" style="enable-background:new 0 0 641 481;" xml:space="preserve">
<style type="text/css">
	.st0{fill:none;}
	.st1{fill:url(#SVGID_1_);}
	.st2{fill:url(#SVGID_2_);}
	.st3{fill:url(#SVGID_3_);}
	.st4{fill:url(#SVGID_4_);}
	.st5{fill:url(#SVGID_5_);}
	.st6{fill:url(#SVGID_6_);}
	.st7{fill:url(#SVGID_7_);}
	.st8{fill:url(#SVGID_8_);}
	.st9{fill:url(#SVGID_9_);}
	.st10{fill:url(#SVGID_10_);}
	.st11{fill:url(#SVGID_11_);}
	.st12{fill:#5D817B;}
	.st13{fill:#44595C;}
	.st14{fill:#333C46;}
	.st15{fill:#2F3641;}
	.st16{fill:#E26F60;}
	.st17{fill:#D87967;}
	.st18{fill:none;stroke:#000000;stroke-width:0.5;stroke-miterlimit:10;}
	.st19{fill:#EFEDED;}
	.st20{fill:#FFFFFF;}
	.st21{fill:#F9F9F9;}
	.st22{fill:#08ACDA;}
	.st23{fill:#1569A9;}
	.st24{fill:url(#SVGID_12_);}
	.st25{fill:url(#SVGID_13_);}
	.st26{fill:url(#SVGID_14_);}
	.st27{fill:url(#SVGID_15_);}
	.st28{fill:url(#SVGID_16_);}
	.st29{fill:none;stroke:#000000;stroke-width:0.5;stroke-miterlimit:9.9999;}
	.st30{fill:url(#SVGID_17_);}
	.st31{fill:url(#SVGID_18_);}
	.st32{fill:url(#SVGID_19_);}
</style>
<title>digitalcontent</title>
<g id="Layer_2_1_">
	<rect x="0.5" y="0.5" class="st0" width="640" height="480"/>
</g>
<linearGradient id="SVGID_1_" gradientUnits="userSpaceOnUse" x1="94.8" y1="275" x2="114.8" y2="275">
	<stop  offset="2.234363e-03" style="stop-color:#1569A9"/>
	<stop  offset="1" style="stop-color:#08ACDA"/>
</linearGradient>
<polygon class="st1" points="114.8,270 104.8,280 94.8,270 "/>
<linearGradient id="SVGID_2_" gradientUnits="userSpaceOnUse" x1="559.7" y1="416.35" x2="591.5" y2="416.35">
	<stop  offset="2.234363e-03" style="stop-color:#1569A9"/>
	<stop  offset="1" style="stop-color:#08ACDA"/>
</linearGradient>
<polygon class="st2" points="591.5,408.4 575.6,424.3 559.7,408.4 "/>
<linearGradient id="SVGID_3_" gradientUnits="userSpaceOnUse" x1="523.9" y1="397.45" x2="540.1" y2="397.45">
	<stop  offset="2.234363e-03" style="stop-color:#1569A9"/>
	<stop  offset="1" style="stop-color:#08ACDA"/>
</linearGradient>
<polygon class="st3" points="540.1,393.4 532,401.5 523.9,393.4 "/>
<linearGradient id="SVGID_4_" gradientUnits="userSpaceOnUse" x1="76.2" y1="79.6" x2="89.1" y2="79.6">
	<stop  offset="2.234363e-03" style="stop-color:#1569A9"/>
	<stop  offset="1" style="stop-color:#08ACDA"/>
</linearGradient>
<polygon class="st4" points="89.1,76.4 82.6,82.8 76.2,76.4 "/>
<linearGradient id="SVGID_5_" gradientUnits="userSpaceOnUse" x1="54" y1="159.9" x2="74.1" y2="159.9">
	<stop  offset="2.234363e-03" style="stop-color:#1569A9"/>
	<stop  offset="1" style="stop-color:#08ACDA"/>
</linearGradient>
<polygon class="st5" points="74.1,154.9 64.1,164.9 54,154.9 "/>
<linearGradient id="SVGID_6_" gradientUnits="userSpaceOnUse" x1="602.7" y1="389.7" x2="617.9" y2="389.7">
	<stop  offset="2.234363e-03" style="stop-color:#1569A9"/>
	<stop  offset="1" style="stop-color:#08ACDA"/>
</linearGradient>
<polygon class="st6" points="617.9,385.9 610.3,393.5 602.7,385.9 "/>
<linearGradient id="SVGID_7_" gradientUnits="userSpaceOnUse" x1="572.9" y1="96.55" x2="594.8" y2="96.55">
	<stop  offset="2.234363e-03" style="stop-color:#1569A9"/>
	<stop  offset="1" style="stop-color:#08ACDA"/>
</linearGradient>
<polygon class="st7" points="594.8,91.1 583.9,102 572.9,91.1 "/>
<linearGradient id="SVGID_8_" gradientUnits="userSpaceOnUse" x1="276.1" y1="99.25" x2="287.1" y2="99.25">
	<stop  offset="2.234363e-03" style="stop-color:#1569A9"/>
	<stop  offset="1" style="stop-color:#08ACDA"/>
</linearGradient>
<polygon class="st8" points="287.1,96.5 281.6,102 276.1,96.5 "/>
<linearGradient id="SVGID_9_" gradientUnits="userSpaceOnUse" x1="560.7" y1="58.35" x2="573.6" y2="58.35">
	<stop  offset="2.234363e-03" style="stop-color:#1569A9"/>
	<stop  offset="1" style="stop-color:#08ACDA"/>
</linearGradient>
<polygon class="st9" points="573.6,55.1 567.2,61.6 560.7,55.1 "/>
<linearGradient id="SVGID_10_" gradientUnits="userSpaceOnUse" x1="236.4" y1="57.1" x2="253.7" y2="57.1">
	<stop  offset="2.234363e-03" style="stop-color:#1569A9"/>
	<stop  offset="1" style="stop-color:#08ACDA"/>
</linearGradient>
<polygon class="st10" points="253.7,52.8 245,61.4 236.4,52.8 "/>
<linearGradient id="SVGID_11_" gradientUnits="userSpaceOnUse" x1="25.5" y1="317.7" x2="59.5" y2="317.7">
	<stop  offset="2.234363e-03" style="stop-color:#1569A9"/>
	<stop  offset="1" style="stop-color:#08ACDA"/>
</linearGradient>
<polygon class="st11" points="59.5,309.2 42.5,326.2 25.5,309.2 "/>
<polygon class="st12" points="209.9,351.6 181.4,380 153,351.6 "/>
<polygon class="st13" points="153,351.6 181.4,323.1 209.9,351.6 "/>
<polygon class="st12" points="238.4,323 210,351.5 181.5,323 "/>
<polygon class="st13" points="181.5,323 210,294.6 238.4,323 "/>
<polygon class="st12" points="266.9,294.6 238.4,323 210,294.6 "/>
<polygon class="st13" points="210,294.5 238.4,266.1 266.9,294.5 "/>
<polygon class="st14" points="161.6,341.5 149,354.1 136.4,341.5 "/>
<polygon class="st12" points="213.7,380.1 197.6,396.2 181.5,380.1 "/>
<polygon class="st13" points="181.5,380.1 210,351.7 238.4,380.1 "/>
<polygon class="st12" points="267,351.6 238.5,380 210.1,351.6 "/>
<polygon class="st15" points="240.1,382.5 264.5,382.5 264.5,406.8 "/>
<polygon class="st14" points="264.6,406.7 240.2,406.7 240.2,382.4 "/>
<polygon class="st15" points="264.6,406.8 252.5,419 240.4,406.8 "/>
<polygon class="st14" points="264.5,358.1 264.5,382.5 240.2,382.5 "/>
<polygon class="st13" points="210.1,351.6 238.5,323.1 267,351.6 "/>
<polygon class="st12" points="295.4,323.1 267,351.6 238.5,323.1 "/>
<polygon class="st13" points="238.5,323.1 267,294.7 295.4,323.1 "/>
<polygon class="st15" points="245.9,313.2 196.6,362.5 184.5,350.4 "/>
<polygon class="st14" points="184.5,350.4 233.8,301.1 245.9,313.2 "/>
<polygon class="st15" points="181.4,309.3 186.5,314.3 175.3,325.5 "/>
<polygon class="st14" points="175.3,325.5 170.3,320.4 181.4,309.3 "/>
<polygon class="st15" points="184.3,316.4 185.8,318 179,324.8 "/>
<polygon class="st14" points="179,324.8 177.4,323.3 184.3,316.4 "/>
<polygon class="st16" points="241.9,280.9 241.9,289.5 233.4,289.5 "/>
<polygon class="st17" points="233.4,289.5 233.4,280.9 241.9,280.9 "/>
<polygon class="st15" points="297.3,273.9 273.1,298.1 248.9,273.9 "/>
<polygon class="st14" points="248.9,273.9 273.1,249.7 297.3,273.9 "/>
<polygon class="st15" points="305.2,266 297.1,274.1 272.9,249.9 "/>
<polygon class="st14" points="272.9,249.9 281,241.8 305.2,266 "/>
<polygon class="st14" points="280.2,211 294.4,225.2 280.2,239.4 "/>
<polygon class="st15" points="308.6,267.9 322.9,253.6 337.1,267.9 "/>
<polygon class="st15" points="308.7,239.3 294.5,253.5 308.7,267.8 "/>
<polygon class="st14" points="308.7,267.8 322.9,253.5 308.7,239.3 "/>
<polygon class="st15" points="294.5,225.1 280.2,239.3 294.5,253.5 "/>
<polygon class="st14" points="294.5,253.5 308.7,239.3 294.5,225.1 "/>
<polygon class="st15" points="280.3,211 337.2,267.8 344.3,260.7 "/>
<polygon class="st14" points="344.3,260.7 287.5,203.8 280.3,211 "/>
<polygon class="st15" points="145.4,351.8 135.6,361.6 125.8,351.8 "/>
<polygon class="st14" points="125.8,351.8 135.6,342 145.4,351.8 "/>
<polygon class="st15" points="135.1,373.6 129.8,368.3 135.1,362.9 "/>
<polygon class="st14" points="124.5,352.3 119.1,357.6 113.8,352.3 "/>
<polygon class="st14" points="129.8,368.3 135.1,363 124.4,352.3 "/>
<polygon class="st15" points="124.4,352.3 119.1,357.6 129.8,368.3 "/>
<polygon class="st14" points="132.4,376.3 135.1,373.6 113.8,352.3 "/>
<polygon class="st15" points="113.8,352.3 111.1,355 132.4,376.3 "/>
<polygon class="st18" points="455.2,337 455.2,326.5 465.6,326.5 "/>
<polygon class="st18" points="465.6,326.5 455.2,326.5 455.2,316.1 "/>
<polygon class="st18" points="455.2,316.1 455.2,326.5 444.8,326.5 "/>
<polygon class="st18" points="444.8,326.5 455.2,326.5 455.2,337 "/>
<polygon class="st18" points="455.2,345.1 455.2,341 459.2,341 "/>
<polygon class="st18" points="459.2,341 455.2,341 455.2,337 "/>
<polygon class="st18" points="455.2,337 455.2,341 451.2,341 "/>
<polygon class="st18" points="451.2,341 455.2,341 455.2,345.1 "/>
<polygon class="st18" points="469.7,283.1 469.7,275.9 476.9,275.9 "/>
<polygon class="st18" points="476.9,275.9 469.7,275.9 469.7,268.6 "/>
<polygon class="st18" points="469.7,268.6 469.7,275.9 462.4,275.9 "/>
<polygon class="st18" points="462.4,275.9 469.7,275.9 469.7,283.1 "/>
<polygon class="st18" points="469.7,288.7 469.7,285.9 472.5,285.9 "/>
<polygon class="st18" points="472.5,285.9 469.7,285.9 469.7,283.1 "/>
<polygon class="st18" points="469.7,283.1 469.7,285.9 466.9,285.9 "/>
<polygon class="st18" points="466.9,285.9 469.7,285.9 469.7,288.7 "/>
<polygon class="st18" points="469.5,324.5 469.5,317.3 476.8,317.3 "/>
<polygon class="st18" points="476.8,317.3 469.5,317.3 469.5,310 "/>
<polygon class="st18" points="469.5,310 469.5,317.3 462.3,317.3 "/>
<polygon class="st18" points="462.3,317.3 469.5,317.3 469.5,324.5 "/>
<polygon class="st18" points="469.5,330.1 469.5,327.3 472.3,327.3 "/>
<polygon class="st18" points="472.3,327.3 469.5,327.3 469.5,324.5 "/>
<polygon class="st18" points="469.5,324.5 469.5,327.3 466.8,327.3 "/>
<polygon class="st18" points="466.8,327.3 469.5,327.3 469.5,330.1 "/>
<polygon class="st18" points="440.2,359.9 440.2,349.5 450.6,349.5 "/>
<polygon class="st18" points="450.6,349.5 440.2,349.5 440.2,339 "/>
<polygon class="st18" points="440.2,339 440.2,349.5 429.8,349.5 "/>
<polygon class="st18" points="429.8,349.5 440.2,349.5 440.2,359.9 "/>
<polygon class="st18" points="440.2,368 440.2,363.9 444.2,363.9 "/>
<polygon class="st18" points="444.2,363.9 440.2,363.9 440.2,359.9 "/>
<polygon class="st18" points="440.2,359.9 440.2,363.9 436.2,363.9 "/>
<polygon class="st18" points="436.2,363.9 440.2,363.9 440.2,368 "/>
<polygon class="st18" points="436.2,343 436.2,339 440.2,339 "/>
<polygon class="st18" points="440.2,339 436.2,339 436.2,334.9 "/>
<polygon class="st18" points="436.2,334.9 436.2,339 432.1,339 "/>
<polygon class="st18" points="432.1,339 436.2,339 436.2,343 "/>
<polygon class="st18" points="439,375.2 439,371.2 443,371.2 "/>
<polygon class="st18" points="443,371.2 439,371.2 439,367.2 "/>
<polygon class="st18" points="439,367.2 439,371.2 435,371.2 "/>
<polygon class="st18" points="435,371.2 439,371.2 439,375.2 "/>
<polygon class="st18" points="469.7,297.7 469.7,293.5 473.9,293.5 "/>
<polygon class="st18" points="473.9,293.5 469.7,293.5 469.7,289.3 "/>
<polygon class="st18" points="469.7,289.3 469.7,293.5 465.4,293.5 "/>
<polygon class="st18" points="465.4,293.5 469.7,293.5 469.7,297.7 "/>
<polygon class="st18" points="469.7,301 469.7,299.4 471.3,299.4 "/>
<polygon class="st18" points="471.3,299.4 469.7,299.4 469.7,297.8 "/>
<polygon class="st18" points="469.7,297.8 469.7,299.4 468,299.4 "/>
<polygon class="st18" points="468,299.4 469.7,299.4 469.7,301 "/>
<polygon class="st18" points="444.8,298 444.8,288.8 454,288.8 "/>
<polygon class="st18" points="454,288.8 444.8,288.8 444.8,279.6 "/>
<polygon class="st18" points="444.8,279.6 444.8,288.8 435.6,288.8 "/>
<polygon class="st18" points="435.6,288.8 444.8,288.8 444.8,298 "/>
<polygon class="st18" points="469.5,265.1 469.5,255.9 478.7,255.9 "/>
<polygon class="st18" points="478.7,255.9 469.5,255.9 469.5,246.7 "/>
<polygon class="st18" points="469.5,246.7 469.5,255.9 460.4,255.9 "/>
<polygon class="st18" points="460.4,255.9 469.5,255.9 469.5,265.1 "/>
<polygon class="st18" points="444.8,326.5 444.8,310.7 460.6,310.7 "/>
<polygon class="st18" points="460.6,310.7 444.8,310.7 444.8,294.8 "/>
<polygon class="st18" points="444.8,294.8 444.8,310.7 428.9,310.7 "/>
<polygon class="st18" points="428.9,310.7 444.8,310.7 444.8,326.5 "/>
<polygon class="st18" points="440.4,339 440.5,330.6 448.8,330.7 "/>
<polygon class="st18" points="448.8,330.6 440.4,330.6 440.4,322.2 "/>
<polygon class="st18" points="440.4,322.2 440.4,330.6 432,330.6 "/>
<polygon class="st18" points="432,330.6 440.4,330.6 440.4,339 "/>
<polygon class="st18" points="446.9,255.4 443.1,251.6 446.9,247.8 "/>
<polygon class="st18" points="446.9,247.8 450.8,251.6 446.9,255.4 "/>
<polygon class="st18" points="428.1,242.9 427.2,243.8 426.2,242.9 "/>
<polygon class="st18" points="466.6,229.5 463.8,232.3 461,229.5 "/>
<polygon class="st18" points="461,229.5 463.8,226.6 466.6,229.5 "/>
<polygon class="st18" points="446.7,225.9 448.7,223.9 450.7,225.9 "/>
<polygon class="st18" points="435.7,259.4 436.9,258.2 438,259.4 "/>
<polygon class="st18" points="449.3,238.5 448.1,239.6 446.9,238.5 "/>
<polygon class="st19" points="433.5,206.8 431.9,208.4 430.4,206.8 "/>
<polygon class="st18" points="429.4,236.4 427.2,234.2 429.4,231.9 "/>
<polygon class="st18" points="429.4,231.9 431.6,234.2 429.4,236.4 "/>
<polygon class="st18" points="438,224.9 433.8,220.6 438,216.3 "/>
<polygon class="st18" points="438,216.3 442.3,220.6 438,224.9 "/>
<polygon class="st20" points="451.8,214.5 449.1,211.8 451.8,209.2 "/>
<polygon class="st21" points="451.8,209.2 454.4,211.8 451.8,214.5 "/>
<polygon class="st22" points="438.8,60.7 438.8,76.2 423.4,76.2 "/>
<polygon class="st23" points="469.6,76.2 454.2,76.2 454.2,60.7 "/>
<polygon class="st23" points="485.1,91.6 469.6,91.6 469.6,76.2 "/>
<polygon class="st23" points="438.8,76.2 438.8,60.7 454.2,60.7 "/>
<polygon class="st22" points="454.2,60.7 454.2,76.2 438.8,76.2 "/>
<polygon class="st22" points="438.8,58.9 438.8,51.1 454.2,51.1 "/>
<polygon class="st23" points="454.2,51.1 454.2,58.9 438.8,58.9 "/>
<polygon class="st23" points="442.6,47.3 442.6,51.1 438.8,51.1 "/>
<polygon class="st22" points="442.6,51.1 442.6,47.3 450.4,47.3 "/>
<polygon class="st23" points="450.4,47.3 450.4,51.1 442.6,51.1 "/>
<polygon class="st23" points="450.4,47.3 450.4,51.1 454.2,51.1 "/>
<polygon class="st22" points="423.4,189.4 434.9,189.4 434.9,201 "/>
<polygon class="st23" points="458,201 458,189.4 469.5,189.4 "/>
<polygon class="st22" points="423.4,76.2 423.4,91.6 407.9,91.6 "/>
<polygon class="st23" points="423.4,91.6 423.4,76.2 469.5,76.2 "/>
<polygon class="st22" points="469.5,76.2 469.5,91.6 423.4,91.6 "/>
<polygon class="st22" points="407.9,113.1 407.9,97.7 469.7,97.7 "/>
<polygon class="st23" points="469.7,97.7 469.7,113.1 407.9,113.1 "/>
<polygon class="st23" points="434.9,177.9 434.9,189.4 423.3,189.4 "/>
<polygon class="st22" points="423.3,189.4 423.3,177.9 434.9,177.9 "/>
<polygon class="st22" points="434.9,189.4 434.9,177.9 458,177.9 "/>
<polygon class="st23" points="458,177.9 458,189.4 434.9,189.4 "/>
<polygon class="st23" points="434.9,201 434.9,189.4 458,189.4 "/>
<polygon class="st22" points="458,189.4 458,201 434.9,201 "/>
<polygon class="st23" points="458,177.9 469.6,177.9 469.6,189.4 "/>
<polygon class="st22" points="469.6,189.4 458,189.4 458,177.9 "/>
<polygon class="st22" points="407.9,174.9 407.9,113.1 469.7,113.1 "/>
<polygon class="st23" points="469.6,113.1 469.6,174.9 407.9,174.9 "/>
<polygon class="st23" points="513.2,174.9 487.4,174.9 487.4,149.1 "/>
<polygon class="st22" points="495.3,174.9 513.2,174.9 513.2,192.8 "/>
<polygon class="st23" points="500.5,180.1 513.2,192.8 500.5,205.4 "/>
<polygon class="st23" points="379.8,174.9 405.6,174.9 405.6,149.1 "/>
<polygon class="st22" points="397.7,174.9 379.8,174.9 379.8,192.8 "/>
<polygon class="st23" points="392.5,180.1 379.8,192.8 392.5,205.4 "/>
<polygon class="st20" points="421.3,161.3 421.3,145.9 436.7,145.9 "/>
<polygon class="st19" points="436.7,145.9 436.7,161.3 421.3,161.3 "/>
<polygon class="st22" points="469.7,113.1 469.7,97.7 485.1,97.7 "/>
<polygon class="st23" points="485.1,97.7 485.1,113.1 469.6,113.1 "/>
<polygon class="st22" points="469.7,159.4 469.7,113.1 485.1,113.1 "/>
<polygon class="st23" points="485.1,113.1 485.1,159.7 469.6,159.7 "/>
<polygon class="st22" points="469.7,174.9 469.7,159.4 485.1,159.4 "/>
<polygon class="st23" points="485.1,159.4 485.1,174.9 469.6,174.9 "/>
<g>
	<g>
		
			<linearGradient id="SVGID_12_" gradientUnits="userSpaceOnUse" x1="243.9655" y1="142.5851" x2="239.5278" y2="137.8455" gradientTransform="matrix(1 0 0 -1 0 482)">
			<stop  offset="2.234363e-03" style="stop-color:#1569A9"/>
			<stop  offset="1" style="stop-color:#08ACDA"/>
		</linearGradient>
		<polygon class="st24" points="240.9,337.8 240.9,347.2 240.9,347.2 245.6,342.5 		"/>
		
			<linearGradient id="SVGID_13_" gradientUnits="userSpaceOnUse" x1="236.6246" y1="144.2727" x2="241.0623" y2="138.7482" gradientTransform="matrix(1 0 0 -1 0 482)">
			<stop  offset="2.234363e-03" style="stop-color:#1569A9"/>
			<stop  offset="1" style="stop-color:#08ACDA"/>
		</linearGradient>
		<polygon class="st25" points="240.9,337.8 236.2,342.5 240.9,347.2 		"/>
		
			<linearGradient id="SVGID_14_" gradientUnits="userSpaceOnUse" x1="233.9495" y1="132.5824" x2="229.5118" y2="127.8428" gradientTransform="matrix(1 0 0 -1 0 482)">
			<stop  offset="2.234363e-03" style="stop-color:#1569A9"/>
			<stop  offset="1" style="stop-color:#08ACDA"/>
		</linearGradient>
		<polygon class="st26" points="230.9,347.8 230.9,357.2 230.9,357.2 235.6,352.5 		"/>
		
			<linearGradient id="SVGID_15_" gradientUnits="userSpaceOnUse" x1="226.6107" y1="134.2723" x2="231.0484" y2="128.7478" gradientTransform="matrix(1 0 0 -1 0 482)">
			<stop  offset="2.234363e-03" style="stop-color:#1569A9"/>
			<stop  offset="1" style="stop-color:#08ACDA"/>
		</linearGradient>
		<polygon class="st27" points="230.9,347.8 226.2,352.5 230.9,357.2 230.9,347.8 		"/>
	</g>
	<g>
		<path class="st0" d="M246.5,357.9L246.5,357.9L246.5,357.9z"/>
		<polygon class="st0" points="246.5,357.9 246.5,357.9 246.5,357.9 		"/>
		
			<linearGradient id="SVGID_16_" gradientUnits="userSpaceOnUse" x1="244.0087" y1="133.2385" x2="246.8766" y2="123.5178" gradientTransform="matrix(1 0 0 -1 0 482)">
			<stop  offset="2.234363e-03" style="stop-color:#1569A9"/>
			<stop  offset="1" style="stop-color:#08ACDA"/>
		</linearGradient>
		<polygon class="st28" points="246.4,357.8 246.4,357.8 246.5,357.9 248.8,355.6 241.1,348 246.4,357.8 		"/>
		<polygon class="st29" points="246.4,357.8 246.4,357.8 246.4,357.8 		"/>
		
			<linearGradient id="SVGID_17_" gradientUnits="userSpaceOnUse" x1="237.2912" y1="130.3463" x2="243.4195" y2="129.1991" gradientTransform="matrix(1 0 0 -1 0 482)">
			<stop  offset="2.234363e-03" style="stop-color:#1569A9"/>
			<stop  offset="1" style="stop-color:#08ACDA"/>
		</linearGradient>
		<polygon class="st30" points="241.1,348 241,347.9 238.8,350.2 246.4,357.8 		"/>
		
			<linearGradient id="SVGID_18_" gradientUnits="userSpaceOnUse" x1="164.7026" y1="213.176" x2="167.5705" y2="203.4553" gradientTransform="matrix(-1 2.433625e-03 2.433625e-03 1 405.4398 145.7429)">
			<stop  offset="2.234363e-03" style="stop-color:#1569A9"/>
			<stop  offset="1" style="stop-color:#08ACDA"/>
		</linearGradient>
		<polygon class="st31" points="238.8,350.3 238.8,350.3 238.8,350.2 236.5,352.4 244.2,360.1 238.8,350.3 		"/>
		
			<linearGradient id="SVGID_19_" gradientUnits="userSpaceOnUse" x1="157.9852" y1="210.2838" x2="164.1135" y2="209.1366" gradientTransform="matrix(-1 2.433625e-03 2.433625e-03 1 405.4398 145.7429)">
			<stop  offset="2.234363e-03" style="stop-color:#1569A9"/>
			<stop  offset="1" style="stop-color:#08ACDA"/>
		</linearGradient>
		<polygon class="st32" points="244.2,360.1 244.3,360.2 246.5,357.9 238.8,350.3 		"/>
	</g>
</g>
</svg>
