<?xml version="1.0" encoding="utf-8"?>
<!-- Generator: Adobe Illustrator 24.0.0, SVG Export Plug-In . SVG Version: 6.00 Build 0)  -->
<svg version="1.1" id="Layer_1" xmlns="http://www.w3.org/2000/svg" xmlns:xlink="http://www.w3.org/1999/xlink" x="0px" y="0px"
	 viewBox="0 0 641 481" style="enable-background:new 0 0 641 481;" xml:space="preserve">
<style type="text/css">
	.st0{fill:none;}
	.st1{fill:url(#SVGID_1_);}
	.st2{fill:url(#SVGID_2_);}
	.st3{fill:url(#SVGID_3_);}
	.st4{fill:url(#SVGID_4_);}
	.st5{fill:url(#SVGID_5_);}
	.st6{fill:url(#SVGID_6_);}
	.st7{fill:url(#SVGID_7_);}
	.st8{fill:url(#SVGID_8_);}
	.st9{fill:url(#SVGID_9_);}
	.st10{fill:url(#SVGID_10_);}
	.st11{fill:url(#SVGID_11_);}
	.st12{fill:url(#SVGID_12_);}
	.st13{fill:url(#SVGID_13_);}
	.st14{fill:url(#SVGID_14_);}
	.st15{fill:url(#SVGID_15_);}
	.st16{fill:#353D4A;}
	.st17{fill:#303544;}
	.st18{fill:url(#SVGID_16_);}
	.st19{fill:url(#SVGID_17_);}
	.st20{fill:#E57965;}
	.st21{fill:#CB7061;}
	.st22{fill:#838383;}
	.st23{fill:#767678;}
	.st24{fill:#F4CA72;}
	.st25{fill:#D7B66C;}
	.st26{fill:#94FCDB;}
	.st27{fill:#85DEC4;}
	.st28{fill:url(#SVGID_18_);}
	.st29{fill:url(#SVGID_19_);}
	.st30{fill:url(#SVGID_20_);}
	.st31{fill:url(#SVGID_21_);}
	.st32{fill:url(#SVGID_22_);}
	.st33{fill:none;stroke:#000000;stroke-width:0.5;stroke-miterlimit:9.9999;}
	.st34{fill:url(#SVGID_23_);}
	.st35{fill:url(#SVGID_24_);}
	.st36{fill:url(#SVGID_25_);}
</style>
<title>webdevelopment</title>
<g id="Layer_2_1_">
	<rect x="0.5" y="0.5" class="st0" width="640" height="480"/>
</g>
<linearGradient id="SVGID_1_" gradientUnits="userSpaceOnUse" x1="46.5" y1="436.7" x2="54.4" y2="436.7">
	<stop  offset="2.234363e-03" style="stop-color:#1569A9"/>
	<stop  offset="1" style="stop-color:#08ACDA"/>
</linearGradient>
<polygon class="st1" points="54.4,434.7 50.4,438.7 46.5,434.7 "/>
<linearGradient id="SVGID_2_" gradientUnits="userSpaceOnUse" x1="567.6" y1="301.1" x2="587.7" y2="301.1">
	<stop  offset="2.234363e-03" style="stop-color:#1569A9"/>
	<stop  offset="1" style="stop-color:#08ACDA"/>
</linearGradient>
<polygon class="st2" points="587.7,296.1 577.6,306.1 567.6,296.1 "/>
<linearGradient id="SVGID_3_" gradientUnits="userSpaceOnUse" x1="539.3" y1="347.15" x2="571.2" y2="347.15">
	<stop  offset="2.234363e-03" style="stop-color:#1569A9"/>
	<stop  offset="1" style="stop-color:#08ACDA"/>
</linearGradient>
<polygon class="st3" points="571.2,339.2 555.2,355.1 539.3,339.2 "/>
<linearGradient id="SVGID_4_" gradientUnits="userSpaceOnUse" x1="40" y1="42.75" x2="52.9" y2="42.75">
	<stop  offset="2.234363e-03" style="stop-color:#1569A9"/>
	<stop  offset="1" style="stop-color:#08ACDA"/>
</linearGradient>
<polygon class="st4" points="52.9,39.5 46.5,46 40,39.5 "/>
<linearGradient id="SVGID_5_" gradientUnits="userSpaceOnUse" x1="17.9" y1="123" x2="37.9" y2="123">
	<stop  offset="2.234363e-03" style="stop-color:#1569A9"/>
	<stop  offset="1" style="stop-color:#08ACDA"/>
</linearGradient>
<polygon class="st5" points="37.9,118 27.9,128 17.9,118 "/>
<linearGradient id="SVGID_6_" gradientUnits="userSpaceOnUse" x1="625.2" y1="424.95" x2="640.5" y2="424.95">
	<stop  offset="2.234363e-03" style="stop-color:#1569A9"/>
	<stop  offset="1" style="stop-color:#08ACDA"/>
</linearGradient>
<polygon class="st6" points="640.5,421.1 632.9,428.8 625.2,421.1 "/>
<linearGradient id="SVGID_7_" gradientUnits="userSpaceOnUse" x1="576.9" y1="107.55" x2="598.8" y2="107.55">
	<stop  offset="2.234363e-03" style="stop-color:#1569A9"/>
	<stop  offset="1" style="stop-color:#08ACDA"/>
</linearGradient>
<polygon class="st7" points="598.8,102.1 587.9,113 576.9,102.1 "/>
<linearGradient id="SVGID_8_" gradientUnits="userSpaceOnUse" x1="283.7" y1="73.2" x2="298.9" y2="73.2">
	<stop  offset="2.234363e-03" style="stop-color:#1569A9"/>
	<stop  offset="1" style="stop-color:#08ACDA"/>
</linearGradient>
<polygon class="st8" points="298.9,69.4 291.3,77 283.7,69.4 "/>
<linearGradient id="SVGID_9_" gradientUnits="userSpaceOnUse" x1="564.7" y1="69.35" x2="577.6" y2="69.35">
	<stop  offset="2.234363e-03" style="stop-color:#1569A9"/>
	<stop  offset="1" style="stop-color:#08ACDA"/>
</linearGradient>
<polygon class="st9" points="577.6,66.1 571.2,72.6 564.7,66.1 "/>
<linearGradient id="SVGID_10_" gradientUnits="userSpaceOnUse" x1="156.7" y1="28.25" x2="180.6" y2="28.25">
	<stop  offset="2.234363e-03" style="stop-color:#1569A9"/>
	<stop  offset="1" style="stop-color:#08ACDA"/>
</linearGradient>
<polygon class="st10" points="180.6,22.3 168.7,34.2 156.7,22.3 "/>
<linearGradient id="SVGID_11_" gradientUnits="userSpaceOnUse" x1="80.5" y1="412.65" x2="114.5" y2="412.65">
	<stop  offset="2.234363e-03" style="stop-color:#1569A9"/>
	<stop  offset="1" style="stop-color:#08ACDA"/>
</linearGradient>
<polygon class="st11" points="114.5,404.2 97.5,421.1 80.5,404.2 "/>
<linearGradient id="SVGID_12_" gradientUnits="userSpaceOnUse" x1="137.6" y1="308.45" x2="238.8" y2="308.45">
	<stop  offset="2.234363e-03" style="stop-color:#1569A9"/>
	<stop  offset="1" style="stop-color:#08ACDA"/>
</linearGradient>
<polygon class="st12" points="238.8,313.1 137.6,313.1 137.6,303.8 "/>
<linearGradient id="SVGID_13_" gradientUnits="userSpaceOnUse" x1="242.2624" y1="291.0578" x2="176.39" y2="312.2493">
	<stop  offset="2.234363e-03" style="stop-color:#1569A9"/>
	<stop  offset="1" style="stop-color:#08ACDA"/>
</linearGradient>
<polygon class="st13" points="137.6,303.8 238.8,303.8 238.8,313.1 "/>
<linearGradient id="SVGID_14_" gradientUnits="userSpaceOnUse" x1="240.3768" y1="333.9455" x2="341.1428" y2="294.7965">
	<stop  offset="2.234363e-03" style="stop-color:#1569A9"/>
	<stop  offset="1" style="stop-color:#08ACDA"/>
</linearGradient>
<polygon class="st14" points="373,313.1 239,313.1 239,303.8 "/>
<linearGradient id="SVGID_15_" gradientUnits="userSpaceOnUse" x1="370.5294" y1="287.3702" x2="282.0187" y2="316.3064">
	<stop  offset="2.234363e-03" style="stop-color:#1569A9"/>
	<stop  offset="1" style="stop-color:#08ACDA"/>
</linearGradient>
<polygon class="st15" points="239.1,303.8 373,303.8 373,313.1 "/>
<polygon class="st16" points="297.4,316 349.8,316 349.8,344.9 "/>
<polygon class="st17" points="349.8,345 297.4,345 297.4,316 "/>
<linearGradient id="SVGID_16_" gradientUnits="userSpaceOnUse" x1="385.2662" y1="340.6103" x2="433.2662" y2="312.355">
	<stop  offset="2.234363e-03" style="stop-color:#1569A9"/>
	<stop  offset="1" style="stop-color:#08ACDA"/>
</linearGradient>
<polygon class="st18" points="506.9,313.1 372.9,313.1 372.9,303.8 "/>
<linearGradient id="SVGID_17_" gradientUnits="userSpaceOnUse" x1="373" y1="308.45" x2="506.9" y2="308.45">
	<stop  offset="2.234363e-03" style="stop-color:#1569A9"/>
	<stop  offset="1" style="stop-color:#08ACDA"/>
</linearGradient>
<polygon class="st19" points="373,303.8 506.9,303.8 506.9,313.1 "/>
<polygon class="st16" points="229.7,212.2 137.3,212.2 137.3,119.9 "/>
<polygon class="st17" points="137.4,119.9 229.7,119.9 229.7,212.2 "/>
<polygon class="st16" points="322.2,212.2 229.9,212.2 229.9,119.9 "/>
<polygon class="st17" points="229.9,119.9 322.2,119.9 322.2,212.2 "/>
<polygon class="st16" points="414.5,212.2 322.1,212.2 322.1,119.9 "/>
<polygon class="st17" points="322.2,119.9 414.5,119.9 414.5,212.2 "/>
<polygon class="st16" points="229.8,304.6 137.4,304.6 137.4,212.2 "/>
<polygon class="st17" points="137.5,212.2 229.8,212.2 229.8,304.5 "/>
<polygon class="st16" points="322.3,304.6 229.9,304.6 229.9,212.2 "/>
<polygon class="st17" points="230,212.2 322.3,212.2 322.3,304.5 "/>
<polygon class="st16" points="414.6,304.6 322.2,304.6 322.2,212.2 "/>
<polygon class="st17" points="322.3,212.2 414.6,212.2 414.6,304.5 "/>
<polygon class="st16" points="506.9,212.2 414.6,212.2 414.6,119.9 "/>
<polygon class="st17" points="414.6,119.9 506.9,119.9 506.9,212.2 "/>
<polygon class="st16" points="507,304.6 414.7,304.6 414.7,212.2 "/>
<polygon class="st17" points="414.7,212.2 507,212.2 507,304.5 "/>
<polygon class="st17" points="371.9,354.1 371.9,350 367.7,349.9 "/>
<polygon class="st16" points="367.7,349.9 367.7,354.1 371.9,354.1 "/>
<polygon class="st16" points="367.7,345.7 367.7,349.9 371.9,350 "/>
<polygon class="st17" points="367.6,358.3 367.7,354.1 371.9,354.1 "/>
<polygon class="st16" points="271.6,354.1 271.6,349.9 275.7,349.9 "/>
<polygon class="st17" points="275.7,349.9 275.8,354 271.6,354.1 "/>
<polygon class="st17" points="275.6,345.7 275.7,349.9 271.6,349.9 "/>
<polygon class="st16" points="275.9,358.2 275.8,354 271.6,354.1 "/>
<polygon class="st17" points="367.6,358.1 367.6,351.9 275.9,351.9 "/>
<polygon class="st16" points="275.9,351.9 275.9,358.2 367.6,358.1 "/>
<polygon class="st17" points="367.6,345.6 367.6,351.9 275.9,351.9 "/>
<polygon class="st16" points="275.9,351.9 275.9,345.6 367.6,345.6 "/>
<polygon class="st20" points="382,160.7 432.9,160.7 432.9,167.5 "/>
<polygon class="st21" points="432.9,167.5 382,167.5 382,160.7 "/>
<polygon class="st20" points="285.7,160.7 319.9,160.7 319.9,167.5 "/>
<polygon class="st21" points="319.9,167.5 285.7,167.5 285.7,160.7 "/>
<polygon class="st22" points="287.4,166.8 287.4,265.7 285.7,265.7 "/>
<polygon class="st23" points="285.7,265.6 285.7,166.8 287.4,166.8 "/>
<polygon class="st21" points="326.4,160.7 374.9,160.7 374.9,167.5 "/>
<polygon class="st20" points="374.9,167.5 326.4,167.5 326.4,160.7 "/>
<polygon class="st21" points="440.4,160.7 475.7,160.7 475.7,167.5 "/>
<polygon class="st20" points="475.6,167.5 440.4,167.5 440.4,160.7 "/>
<polygon class="st22" points="372.4,183.9 398.7,183.9 398.7,190.6 "/>
<polygon class="st23" points="398.7,190.6 372.3,190.6 372.3,183.9 "/>
<polygon class="st21" points="406.4,183.9 434.2,183.9 434.2,190.6 "/>
<polygon class="st20" points="434.1,190.6 406.4,190.6 406.4,183.9 "/>
<polygon class="st24" points="440.1,183.9 475.7,183.9 475.7,190.6 "/>
<polygon class="st25" points="475.6,190.6 440.1,190.6 440.1,183.9 "/>
<polygon class="st26" points="312.4,211.7 344.5,211.7 344.5,217.1 "/>
<polygon class="st27" points="344.4,217.1 312.4,217.1 312.4,211.7 "/>
<polygon class="st23" points="351,211.7 382.2,211.7 382.2,217.1 "/>
<polygon class="st22" points="382.2,217.1 351,217.1 351,211.7 "/>
<polygon class="st20" points="390.6,211.7 402.6,211.7 402.6,217.1 "/>
<polygon class="st21" points="402.6,217.1 390.6,217.1 390.6,211.7 "/>
<polygon class="st25" points="409.6,211.7 451.9,211.7 451.9,217.1 "/>
<polygon class="st24" points="451.9,217.1 409.6,217.1 409.6,211.7 "/>
<polygon class="st26" points="312.4,243.1 326.2,243.1 326.2,248.5 "/>
<polygon class="st27" points="326.2,248.6 312.4,248.6 312.4,243.1 "/>
<polygon class="st20" points="287.4,267.3 287.4,274.2 284.7,274.2 "/>
<polygon class="st21" points="284.7,274.2 284.7,267.3 287.4,267.3 "/>
<polygon class="st23" points="299.1,190 299.1,254.1 297.4,254.1 "/>
<polygon class="st22" points="297.4,254 297.4,190 299.1,190 "/>
<polygon class="st25" points="299.1,255.7 299.1,262.6 296.4,262.6 "/>
<polygon class="st24" points="296.4,262.6 296.4,255.7 299.1,255.7 "/>
<polygon class="st23" points="332.8,243.1 356.4,243.1 356.4,248.5 "/>
<polygon class="st22" points="356.4,248.6 332.8,248.6 332.8,243.1 "/>
<polygon class="st20" points="363.6,243.1 412.4,243.1 412.4,248.5 "/>
<polygon class="st21" points="412.4,248.6 363.6,248.6 363.6,243.1 "/>
<polygon class="st25" points="420.9,243.4 451.9,243.4 451.9,248.8 "/>
<polygon class="st24" points="451.9,248.8 420.9,248.8 420.9,243.4 "/>
<polygon class="st27" points="312.4,227.6 356.3,227.6 356.3,233 "/>
<polygon class="st26" points="356.3,233 312.4,233 312.4,227.6 "/>
<polygon class="st22" points="363.6,227.6 396.8,227.6 396.8,233 "/>
<polygon class="st23" points="396.8,233 363.6,233 363.6,227.6 "/>
<polygon class="st21" points="405.5,227.6 419.3,227.6 419.3,233 "/>
<polygon class="st20" points="419.3,233 405.5,233 405.5,227.6 "/>
<polygon class="st24" points="428.1,227.6 451.9,227.6 451.9,233 "/>
<polygon class="st25" points="451.9,233 428.1,233 428.1,227.6 "/>
<polygon class="st25" points="297.2,183.9 320.5,183.9 320.5,190.6 "/>
<polygon class="st24" points="320.5,190.6 297.2,190.6 297.2,183.9 "/>
<polygon class="st27" points="326.4,183.9 366.5,183.9 366.5,190.6 "/>
<polygon class="st26" points="366.5,190.6 326.4,190.6 326.4,183.9 "/>
<g>
	<g>
		
			<linearGradient id="SVGID_18_" gradientUnits="userSpaceOnUse" x1="226.7489" y1="319.5459" x2="207.5156" y2="299.0043" gradientTransform="matrix(1 0 0 -1 0 482)">
			<stop  offset="2.234363e-03" style="stop-color:#1569A9"/>
			<stop  offset="1" style="stop-color:#08ACDA"/>
		</linearGradient>
		<polygon class="st28" points="213.6,155.6 213.6,196.1 213.6,196.1 233.9,175.8 		"/>
		
			<linearGradient id="SVGID_19_" gradientUnits="userSpaceOnUse" x1="194.933" y1="326.8599" x2="214.1663" y2="302.9164" gradientTransform="matrix(1 0 0 -1 0 482)">
			<stop  offset="2.234363e-03" style="stop-color:#1569A9"/>
			<stop  offset="1" style="stop-color:#08ACDA"/>
		</linearGradient>
		<polygon class="st29" points="213.6,155.6 193.3,175.8 213.6,196.1 		"/>
		
			<linearGradient id="SVGID_20_" gradientUnits="userSpaceOnUse" x1="183.339" y1="276.1938" x2="164.1057" y2="255.6521" gradientTransform="matrix(1 0 0 -1 0 482)">
			<stop  offset="2.234363e-03" style="stop-color:#1569A9"/>
			<stop  offset="1" style="stop-color:#08ACDA"/>
		</linearGradient>
		<polygon class="st30" points="170.2,198.9 170.2,239.4 170.2,239.5 190.4,219.2 		"/>
		
			<linearGradient id="SVGID_21_" gradientUnits="userSpaceOnUse" x1="151.5322" y1="283.5178" x2="170.7654" y2="259.5743" gradientTransform="matrix(1 0 0 -1 0 482)">
			<stop  offset="2.234363e-03" style="stop-color:#1569A9"/>
			<stop  offset="1" style="stop-color:#08ACDA"/>
		</linearGradient>
		<polygon class="st31" points="170.1,198.9 149.9,219.2 170.2,239.4 170.2,198.9 		"/>
	</g>
	<g>
		<path class="st0" d="M237.5,242.7L237.5,242.7L237.5,242.7z"/>
		<polygon class="st0" points="237.5,242.7 237.6,242.7 237.5,242.7 		"/>
		
			<linearGradient id="SVGID_22_" gradientUnits="userSpaceOnUse" x1="226.9358" y1="279.0375" x2="239.3655" y2="236.9074" gradientTransform="matrix(1 0 0 -1 0 482)">
			<stop  offset="2.234363e-03" style="stop-color:#1569A9"/>
			<stop  offset="1" style="stop-color:#08ACDA"/>
		</linearGradient>
		<polygon class="st32" points="237.3,242.2 237.3,242.2 237.5,242.7 247.5,232.8 214.1,199.5 237.3,242.2 		"/>
		<polygon class="st33" points="237.3,242.2 237.3,242.2 237.3,242.2 		"/>
		
			<linearGradient id="SVGID_23_" gradientUnits="userSpaceOnUse" x1="197.8222" y1="266.5025" x2="224.3825" y2="261.5306" gradientTransform="matrix(1 0 0 -1 0 482)">
			<stop  offset="2.234363e-03" style="stop-color:#1569A9"/>
			<stop  offset="1" style="stop-color:#08ACDA"/>
		</linearGradient>
		<polygon class="st34" points="214.1,199.5 213.9,199.2 204.1,209 237.3,242.2 		"/>
		
			<linearGradient id="SVGID_24_" gradientUnits="userSpaceOnUse" x1="190.6836" y1="102.5155" x2="203.1133" y2="60.3856" gradientTransform="matrix(-1 2.433625e-03 2.433625e-03 1 405.4398 145.7429)">
			<stop  offset="2.234363e-03" style="stop-color:#1569A9"/>
			<stop  offset="1" style="stop-color:#08ACDA"/>
		</linearGradient>
		<polygon class="st35" points="204.5,209.5 204.6,209.5 204.3,209 194.4,218.9 227.8,252.2 204.6,209.5 		"/>
		
			<linearGradient id="SVGID_25_" gradientUnits="userSpaceOnUse" x1="161.5702" y1="89.9806" x2="188.1303" y2="85.0088" gradientTransform="matrix(-1 2.433625e-03 2.433625e-03 1 405.4398 145.7429)">
			<stop  offset="2.234363e-03" style="stop-color:#1569A9"/>
			<stop  offset="1" style="stop-color:#08ACDA"/>
		</linearGradient>
		<polygon class="st36" points="227.8,252.2 228,252.4 237.8,242.6 204.6,209.5 		"/>
	</g>
</g>
</svg>
